<?xml version="1.0" encoding="UTF-8" standalone="no"?>
<!DOCTYPE svg PUBLIC "-//W3C//DTD SVG 1.1//EN" "http://www.w3.org/Graphics/SVG/1.1/DTD/svg11.dtd">
<svg xmlns="http://www.w3.org/2000/svg" version="1.1" viewBox="0 0 374 281">
<path fill="rgb(110,61,46)" fill-opacity="1.000" d="M 183.06 0.00 Q 183.56 0.00 184.06 0.00 Q 237.36 14.04 291.14 27.85 A 0.88 0.86 10.2 0 1 291.79 28.77 L 282.21 134.24 A 0.46 0.46 -87.2 0 0 282.67 134.75 L 355.52 134.75 A 1.19 1.17 77.2 0 1 356.58 135.43 Q 365.05 153.38 374.00 171.31 Q 374.00 176.44 374.00 181.56 Q 373.59 194.53 373.50 207.40 A 0.55 0.54 -0.0 0 1 372.95 207.94 L 342.96 207.75 Q 341.59 207.75 342.37 208.89 Q 343.77 210.96 345.07 213.42 Q 346.01 215.18 345.85 217.30 Q 344.66 234.13 343.23 250.94 A 0.55 0.54 2.2 0 1 342.68 251.44 L 234.01 251.25 A 1.59 0.82 50.1 0 1 233.15 250.89 Q 232.42 250.32 231.44 250.94 Q 208.08 265.59 184.18 280.50 A 1.59 1.55 45.1 0 1 182.49 280.48 L 138.43 251.81 A 3.61 3.40 -27.0 0 0 136.51 251.25 Q 117.74 251.26 99.83 251.47 Q 93.71 251.54 85.05 251.34 Q 74.69 251.11 70.25 251.50 Q 63.64 252.08 57.00 252.06 Q 35.75 252.00 13.41 252.00 A 1.06 1.05 -87.7 0 1 12.36 250.86 Q 13.77 234.51 15.07 217.63 Q 15.26 215.14 16.30 213.10 Q 17.32 211.10 18.60 208.90 Q 19.13 207.98 18.07 208.01 Q 9.24 208.23 0.00 207.69 Q 0.00 203.19 0.00 198.69 Q 0.44 184.97 0.50 171.24 A 1.64 1.52 64.3 0 1 0.78 170.33 L 5.19 164.15 A 1.57 1.48 -28.3 0 0 5.49 163.25 L 5.06 135.56 A 0.51 0.49 -0.6 0 1 5.57 135.06 L 83.60 134.74 A 1.02 1.01 87.4 0 0 84.61 133.63 L 75.11 28.96 A 1.11 1.11 80.5 0 1 75.94 27.79 Q 129.99 13.98 183.06 0.00 Z M 93.04 142.25 L 13.40 142.49 A 0.67 0.65 -0.9 0 0 12.74 143.15 L 13.17 165.44 A 1.65 1.16 70.2 0 1 12.92 166.35 L 8.70 172.14 A 3.67 2.73 -33.3 0 0 8.00 174.06 L 7.74 199.82 A 0.68 0.68 -89.6 0 0 8.42 200.50 L 27.12 200.50 A 1.01 1.00 17.6 0 0 27.94 200.08 L 34.96 190.46 Q 35.27 190.04 35.35 190.56 Q 35.90 194.02 34.56 196.06 Q 29.46 205.20 24.26 214.29 Q 22.99 216.52 22.71 219.02 Q 21.37 231.15 20.72 243.74 A 0.49 0.49 -88.9 0 0 21.21 244.25 L 38.25 244.25 A 0.91 0.85 -74.4 0 0 39.01 243.79 L 44.71 233.57 Q 45.10 232.87 45.42 233.63 L 47.13 237.73 A 0.68 0.66 -37.9 0 0 48.28 237.86 Q 49.70 236.00 49.56 238.25 Q 49.40 240.87 49.24 243.68 A 0.54 0.54 -89.0 0 0 49.79 244.25 L 75.26 244.01 A 1.07 0.98 16.3 0 0 76.07 243.61 L 82.92 234.11 A 1.16 0.72 -65.2 0 1 83.68 233.61 L 88.02 233.57 A 0.55 0.50 -89.4 0 1 88.52 234.13 L 88.32 243.43 A 0.50 0.49 -89.4 0 0 88.81 243.94 Q 112.41 243.78 136.00 243.75 Q 138.45 243.48 140.75 244.21 L 183.12 271.77 A 0.57 0.54 44.7 0 0 183.71 271.78 L 227.79 244.25 Q 228.60 244.17 229.04 243.50 L 237.71 238.25 L 238.67 242.27 A 1.92 1.63 82.3 0 0 240.32 243.75 L 335.43 243.94 A 0.57 0.57 3.4 0 0 336.00 243.44 Q 337.62 230.29 338.17 217.06 A 1.68 1.66 30.7 0 0 337.93 216.13 L 328.84 200.90 Q 328.45 200.25 329.20 200.25 L 365.17 200.25 A 0.81 0.79 0.4 0 0 365.98 199.47 L 366.24 174.00 Q 366.25 172.97 365.74 171.91 L 351.90 143.01 A 0.82 0.82 77.5 0 0 351.18 142.55 L 334.76 142.50 A 0.52 0.47 -1.6 0 0 334.24 143.00 L 334.49 148.46 Q 334.52 149.07 334.07 148.70 L 327.07 142.89 A 1.41 1.32 63.7 0 0 326.19 142.56 Q 300.31 142.43 274.44 142.53 Q 273.93 142.53 273.96 142.00 L 283.62 34.69 A 1.09 1.09 -80.3 0 0 282.81 33.54 Q 233.74 20.81 185.51 8.35 Q 183.44 7.81 181.38 8.35 Q 132.54 21.02 83.99 33.61 A 1.03 1.01 -10.0 0 0 83.22 34.69 L 93.04 142.25 Z"/>
<path fill="rgb(255,204,0)" fill-opacity="1.000" d="M 185.51 8.35 Q 233.74 20.81 282.81 33.54 A 1.09 1.09 -80.3 0 1 283.62 34.69 L 273.96 142.00 L 273.68 142.19 A 1.00 0.31 -40.3 0 1 273.10 142.44 L 260.00 142.54 L 270.09 42.06 A 1.04 1.04 9.6 0 0 269.30 40.95 L 205.28 25.76 Q 201.96 24.97 205.05 26.43 L 261.18 53.00 A 0.73 0.72 15.5 0 1 261.60 53.73 L 252.21 142.25 L 239.86 142.47 A 1.40 1.35 -1.2 0 0 238.48 143.86 L 238.68 151.44 A 1.22 0.98 71.4 0 1 238.36 152.31 Q 237.33 153.33 236.75 151.50 Q 235.67 147.27 234.23 143.16 A 0.73 0.73 -9.4 0 0 233.56 142.68 L 155.36 142.51 A 0.85 0.84 -86.6 0 0 154.51 143.27 Q 154.15 146.65 154.12 150.50 Q 154.11 152.78 151.54 152.20 A 0.77 0.71 -85.3 0 1 150.98 151.48 L 150.73 143.00 A 0.58 0.53 -0.5 0 0 150.16 142.49 L 114.50 142.21 L 105.30 54.08 A 1.25 1.25 74.2 0 1 106.01 52.81 L 161.99 26.37 Q 164.88 25.01 161.77 25.75 L 97.18 41.07 A 0.58 0.57 -9.9 0 0 96.74 41.68 L 106.71 142.25 Q 99.87 142.88 93.04 142.25 L 83.22 34.69 A 1.03 1.01 -10.0 0 1 83.99 33.61 Q 132.54 21.02 181.38 8.35 Q 183.44 7.81 185.51 8.35 Z M 169.71 106.25 Q 167.16 112.74 173.00 116.04 Q 174.59 116.64 175.00 118.21 Q 173.61 120.92 172.50 123.75 Q 168.47 131.34 175.33 135.50 A 0.44 0.41 25.4 0 0 175.97 135.30 Q 176.18 134.63 175.56 134.19 Q 171.44 131.21 173.06 126.33 Q 173.08 126.26 173.13 126.32 Q 174.61 128.33 174.86 127.58 Q 176.29 123.22 179.06 119.56 Q 180.25 118.00 180.81 120.44 L 181.29 122.50 L 181.25 131.60 A 0.60 0.59 -89.0 0 0 181.82 132.20 L 187.31 132.33 A 0.53 0.52 1.1 0 0 187.85 131.82 L 187.96 122.25 L 187.96 119.25 L 188.45 112.79 Q 188.54 111.62 188.63 112.81 L 189.55 124.69 A 0.99 0.77 -83.0 0 0 190.00 125.44 Q 190.87 125.88 191.81 125.86 A 0.59 0.55 -0.6 0 0 192.38 125.32 L 192.45 120.74 A 2.04 1.77 79.9 0 1 193.50 118.98 Q 197.32 117.24 197.21 113.50 L 197.34 102.32 A 0.84 0.74 79.4 0 1 197.77 101.60 Q 200.79 100.21 203.82 98.84 Q 212.02 95.12 213.45 87.57 Q 214.10 84.18 212.75 73.96 Q 211.48 64.24 209.03 54.76 Q 206.78 46.04 205.58 43.90 Q 202.60 38.54 195.98 36.58 Q 186.68 33.84 179.25 33.50 Q 171.16 33.13 164.56 37.43 Q 159.04 41.02 156.06 44.70 Q 152.01 49.71 152.49 56.91 Q 152.56 57.95 153.42 57.37 Q 156.50 55.28 153.00 60.03 A 1.96 1.95 -37.1 0 0 152.74 61.89 Q 153.07 62.75 154.39 61.65 Q 155.78 60.49 155.54 61.58 Q 155.47 61.90 155.21 62.22 Q 153.43 64.42 153.31 64.81 Q 152.50 67.47 154.94 65.94 Q 155.78 65.41 156.19 65.62 A 0.61 0.35 -57.6 0 1 156.16 66.36 L 153.93 69.70 Q 152.66 71.60 154.75 70.68 L 156.83 69.76 A 0.45 0.32 -18.0 0 1 157.44 69.95 Q 157.49 70.37 157.00 70.75 Q 154.58 72.64 154.56 74.06 Q 154.54 76.16 156.35 74.87 Q 156.71 74.62 157.03 74.62 Q 157.59 74.60 157.26 75.19 Q 156.51 76.56 155.56 77.81 Q 154.18 81.05 157.35 79.17 Q 158.51 78.48 157.67 79.71 Q 156.62 81.25 156.00 83.00 Q 155.18 85.32 157.31 83.81 Q 157.99 83.34 158.55 83.63 A 0.57 0.39 -61.7 0 1 158.62 84.33 L 156.92 87.29 A 0.86 0.81 -48.4 0 0 156.95 88.20 Q 157.34 88.76 158.20 88.18 Q 160.51 86.62 158.15 90.36 A 1.78 1.76 -38.2 0 0 157.96 91.86 Q 159.89 97.77 163.95 100.40 Q 164.17 100.54 167.25 101.57 Q 170.16 102.55 169.71 106.25 Z"/>
<path fill="rgb(255,251,193)" fill-opacity="1.000" d="M 161.99 26.37 L 106.01 52.81 A 1.25 1.25 74.2 0 0 105.30 54.08 L 114.50 142.21 Q 110.61 142.91 106.71 142.25 L 96.74 41.68 A 0.58 0.57 -9.9 0 1 97.18 41.07 L 161.77 25.75 Q 164.88 25.01 161.99 26.37 Z"/>
<path fill="rgb(255,251,193)" fill-opacity="1.000" d="M 205.28 25.76 L 269.30 40.95 A 1.04 1.04 9.6 0 1 270.09 42.06 L 260.00 142.54 Q 256.65 142.42 253.31 142.56 Q 252.54 143.05 252.21 142.25 L 261.60 53.73 A 0.73 0.72 15.5 0 0 261.18 53.00 L 205.05 26.43 Q 201.96 24.97 205.28 25.76 Z"/>
<path fill="rgb(255,255,255)" fill-opacity="1.000" d="M 179.25 33.50 Q 186.68 33.84 195.98 36.58 Q 202.60 38.54 205.58 43.90 Q 206.78 46.04 209.03 54.76 Q 211.48 64.24 212.75 73.96 Q 214.10 84.18 213.45 87.57 Q 212.02 95.12 203.82 98.84 Q 200.79 100.21 197.77 101.60 A 0.84 0.74 79.4 0 0 197.34 102.32 L 197.21 113.50 Q 196.59 113.61 196.13 113.33 A 1.07 0.70 -80.8 0 1 195.76 112.51 L 195.71 110.00 L 195.00 101.31 A 0.58 0.58 88.4 0 0 194.43 100.77 L 184.19 100.66 A 0.53 0.52 -88.9 0 0 183.66 101.18 L 183.46 112.25 Q 182.00 111.36 180.46 111.75 Q 181.13 107.62 177.66 105.63 Q 177.33 105.44 176.94 105.33 Q 174.66 104.71 176.79 106.50 Q 174.14 108.00 171.22 107.15 Q 171.01 107.09 170.26 107.06 Q 169.61 107.04 169.71 106.25 Q 170.16 102.55 167.25 101.57 Q 164.17 100.54 163.95 100.40 Q 159.89 97.77 157.96 91.86 A 1.78 1.76 -38.2 0 1 158.15 90.36 Q 160.51 86.62 158.20 88.18 Q 157.34 88.76 156.95 88.20 A 0.86 0.81 -48.4 0 1 156.92 87.29 L 158.62 84.33 A 0.57 0.39 -61.7 0 0 158.55 83.63 Q 157.99 83.34 157.31 83.81 Q 155.18 85.32 156.00 83.00 Q 156.62 81.25 157.67 79.71 Q 158.51 78.48 157.35 79.17 Q 154.18 81.05 155.56 77.81 Q 156.51 76.56 157.26 75.19 Q 157.59 74.60 157.03 74.62 Q 156.71 74.62 156.35 74.87 Q 154.54 76.16 154.56 74.06 Q 154.58 72.64 157.00 70.75 Q 157.49 70.37 157.44 69.95 A 0.45 0.32 -18.0 0 0 156.83 69.76 L 154.75 70.68 Q 152.66 71.60 153.93 69.70 L 156.16 66.36 A 0.61 0.35 -57.6 0 0 156.19 65.62 Q 155.78 65.41 154.94 65.94 Q 152.50 67.47 153.31 64.81 Q 153.43 64.42 155.21 62.22 Q 155.47 61.90 155.54 61.58 Q 155.78 60.49 154.39 61.65 Q 153.07 62.75 152.74 61.89 A 1.96 1.95 -37.1 0 1 153.00 60.03 Q 156.50 55.28 153.42 57.37 Q 152.56 57.95 152.49 56.91 Q 152.01 49.71 156.06 44.70 Q 159.04 41.02 164.56 37.43 Q 171.16 33.13 179.25 33.50 Z M 205.80 77.27 L 210.25 76.81 A 1.24 0.93 9.1 0 0 211.07 76.38 Q 211.75 75.40 210.50 74.75 Q 208.11 74.13 205.95 72.99 Q 205.48 72.74 205.98 72.62 Q 207.52 72.23 208.50 72.50 Q 210.20 72.97 210.59 71.80 A 0.60 0.56 -71.6 0 0 210.25 71.06 L 204.57 68.99 Q 202.26 68.15 202.89 70.74 Q 203.28 72.38 202.74 74.63 Q 202.61 75.16 202.52 74.62 L 198.37 47.81 Q 198.29 47.24 198.58 47.73 Q 199.65 49.48 200.00 52.25 Q 200.35 55.03 203.12 55.20 Q 204.26 55.27 204.99 55.36 Q 207.17 55.65 206.63 54.03 A 1.40 1.14 9.2 0 0 206.00 53.32 Q 204.16 52.29 202.19 51.56 Q 201.41 50.97 201.99 50.80 Q 202.19 50.74 202.52 50.81 Q 204.16 51.19 205.31 51.03 Q 207.70 50.68 205.70 49.57 L 201.19 47.07 A 1.02 0.41 21.9 0 1 200.67 46.57 Q 200.51 45.97 201.30 46.31 Q 201.61 46.45 201.86 46.47 Q 202.75 46.54 204.05 46.47 A 0.53 0.53 76.6 0 0 204.51 45.72 Q 202.35 41.02 197.69 39.06 Q 195.45 38.63 193.31 37.86 Q 192.14 37.44 190.08 37.22 Q 188.40 37.04 186.84 36.25 Q 185.26 35.45 185.07 36.35 A 0.59 0.59 -66.3 0 1 184.15 36.71 Q 180.76 34.31 178.86 35.90 A 0.79 0.71 -50.4 0 1 178.06 36.02 Q 174.36 34.20 170.57 36.12 Q 168.70 37.06 170.80 36.94 Q 174.48 36.72 175.32 40.21 A 2.03 2.03 -4.9 0 0 177.16 41.76 Q 183.52 42.18 189.71 44.16 Q 190.20 44.31 189.69 44.34 Q 185.73 44.52 181.76 44.18 Q 177.25 43.79 173.18 45.66 Q 169.16 47.50 165.56 50.06 Q 165.19 50.33 165.26 50.53 A 0.44 0.27 -24.5 0 0 165.80 50.60 Q 177.25 45.01 189.70 48.31 Q 190.22 48.44 189.71 48.58 Q 187.46 49.19 184.50 49.00 Q 174.16 48.33 166.19 55.11 Q 165.80 55.44 166.27 55.25 Q 173.53 52.34 174.75 52.25 Q 183.17 51.64 191.49 53.06 Q 192.16 53.17 192.16 53.39 A 0.61 0.28 -2.2 0 1 191.55 53.70 Q 186.27 53.85 181.00 54.25 Q 172.77 54.38 167.04 59.72 Q 166.23 60.48 167.23 60.01 Q 178.89 54.51 191.51 57.50 Q 192.86 57.82 191.48 57.96 Q 188.29 58.27 184.99 58.41 Q 180.79 58.58 178.57 59.15 Q 172.99 60.57 168.15 63.87 Q 165.95 65.38 168.17 64.76 Q 168.42 64.70 168.70 64.57 Q 180.02 59.38 192.23 62.19 Q 192.57 62.26 192.67 62.46 Q 192.87 62.80 192.25 63.00 Q 186.50 63.33 180.75 63.75 Q 174.28 64.22 167.95 69.61 Q 167.56 69.94 168.01 69.74 Q 181.37 64.05 195.68 67.31 A 0.27 0.26 -87.2 0 0 196.00 67.01 Q 194.74 57.63 193.50 48.25 Q 193.42 47.64 193.56 47.34 Q 193.85 46.70 194.05 47.54 Q 196.47 58.00 197.56 68.69 Q 198.41 71.40 197.49 73.98 Q 197.36 74.34 197.28 73.95 L 196.11 68.53 A 0.81 0.65 -0.7 0 0 195.44 68.00 Q 186.55 67.01 177.92 69.38 Q 173.42 70.62 169.71 73.42 Q 167.98 74.73 170.00 73.94 Q 181.28 69.52 193.72 71.36 Q 196.24 71.73 193.71 72.03 Q 189.01 72.61 184.00 73.00 Q 177.86 73.48 170.67 77.80 Q 170.45 77.93 170.20 78.03 Q 168.73 78.61 170.18 78.68 Q 170.43 78.69 170.67 78.60 Q 182.38 74.31 194.76 75.93 A 0.89 0.60 1.8 0 1 195.48 76.45 Q 195.58 76.94 194.50 76.75 Q 194.24 76.70 185.02 77.87 Q 177.21 78.86 171.04 82.76 Q 169.44 83.77 171.29 83.32 L 176.88 81.95 A 1.49 1.30 80.5 0 1 178.51 83.29 L 179.18 89.46 Q 179.26 90.17 179.76 89.74 Q 180.05 89.50 180.02 89.00 Q 179.85 85.74 180.16 82.49 Q 180.37 80.28 181.59 81.44 A 1.55 1.27 -76.3 0 1 182.01 82.31 Q 183.43 91.99 175.69 97.55 Q 175.23 97.88 174.97 98.11 Q 173.01 99.88 175.44 99.19 Q 183.47 96.89 187.19 88.19 Q 187.44 87.59 187.79 87.57 A 0.51 0.37 -79.1 0 1 188.10 88.23 Q 186.41 93.32 182.93 97.45 Q 181.88 98.70 183.34 97.99 Q 189.41 95.08 192.54 88.69 Q 192.82 88.11 192.97 88.69 Q 193.09 89.18 192.69 89.69 Q 190.91 94.02 187.70 97.41 Q 187.54 97.59 187.51 97.75 Q 187.39 98.27 188.00 98.00 Q 194.97 94.88 198.20 87.58 A 0.47 0.28 -70.4 0 1 198.58 87.27 Q 198.81 87.31 198.68 87.73 Q 197.19 92.77 193.74 96.63 Q 192.45 98.07 194.18 97.19 Q 199.96 94.26 203.12 88.65 A 0.54 0.35 -60.6 0 1 203.68 88.36 Q 203.92 88.49 203.73 88.95 Q 202.13 92.71 199.50 95.84 Q 199.29 96.09 199.21 96.34 Q 198.87 97.45 200.06 96.56 Q 204.64 93.15 206.91 89.93 Q 208.44 87.76 207.75 90.50 Q 207.00 93.50 203.08 96.60 A 0.57 0.37 -34.3 0 0 202.85 97.15 Q 202.96 97.41 203.42 97.15 Q 212.95 91.85 211.98 80.80 A 1.43 1.33 -71.0 0 0 211.60 79.94 Q 209.46 77.68 206.50 77.75 Q 205.97 77.76 205.67 77.64 Q 204.98 77.36 205.80 77.27 Z M 172.73 39.67 L 169.25 38.51 A 0.96 0.63 -55.7 0 0 168.40 38.86 Q 167.18 40.25 170.24 39.36 A 1.29 1.28 -28.2 0 1 171.59 39.76 Q 173.43 41.91 173.44 40.85 A 1.29 1.03 -82.4 0 0 172.73 39.67 Z M 162.44 54.56 Q 163.69 70.06 167.20 85.21 Q 167.36 85.88 167.65 85.32 Q 167.86 84.92 167.75 84.25 Q 165.08 67.75 162.79 51.04 Q 162.61 49.69 162.30 51.02 Q 161.97 52.50 162.44 54.56 Z M 157.97 55.96 Q 157.63 53.65 157.70 55.98 Q 158.17 71.73 161.93 87.44 Q 161.98 87.67 161.98 88.06 Q 161.98 88.59 162.28 88.63 A 0.54 0.38 87.6 0 0 162.68 88.00 L 157.97 55.96 Z M 206.81 57.69 Q 205.04 56.24 201.94 55.97 A 0.62 0.59 9.0 0 0 201.30 56.41 Q 200.56 59.41 203.57 59.33 Q 204.82 59.30 205.42 59.36 Q 209.32 59.74 206.81 57.69 Z M 207.87 62.22 Q 205.73 61.02 203.45 60.27 Q 201.35 59.57 202.12 62.52 A 1.59 1.57 87.3 0 0 203.38 63.68 Q 205.60 64.08 207.64 63.67 Q 209.72 63.26 207.87 62.22 Z M 208.56 66.20 Q 206.06 64.97 203.31 64.62 A 0.65 0.60 12.7 0 0 202.62 65.02 Q 202.09 66.55 203.13 67.66 A 1.41 1.08 -14.7 0 0 204.01 68.03 Q 205.91 68.12 207.82 68.22 Q 208.61 68.26 209.14 67.99 Q 210.65 67.23 208.56 66.20 Z"/>
<path fill="rgb(255,204,0)" fill-opacity="1.000" d="M 178.86 35.90 Q 180.76 34.31 184.15 36.71 A 0.59 0.59 -66.6 0 0 185.07 36.35 Q 185.26 35.45 186.84 36.25 Q 188.40 37.04 190.08 37.22 Q 192.14 37.44 193.31 37.86 Q 195.45 38.63 197.69 39.06 Q 202.35 41.02 204.51 45.72 A 0.53 0.53 76.6 0 1 204.05 46.47 Q 202.75 46.54 201.86 46.47 Q 201.61 46.45 201.30 46.31 Q 200.51 45.97 200.67 46.57 A 1.02 0.41 21.9 0 0 201.19 47.07 L 205.70 49.57 Q 207.70 50.68 205.31 51.03 Q 204.16 51.19 202.52 50.81 Q 202.19 50.74 201.99 50.80 Q 201.41 50.97 202.19 51.56 Q 204.16 52.29 206.00 53.32 A 1.40 1.14 9.2 0 1 206.63 54.03 Q 207.17 55.65 204.99 55.36 Q 204.26 55.27 203.12 55.20 Q 200.35 55.03 200.00 52.25 Q 199.65 49.48 198.58 47.73 Q 198.29 47.24 198.37 47.81 L 202.52 74.62 Q 202.61 75.16 202.74 74.63 Q 203.28 72.38 202.89 70.74 Q 202.26 68.15 204.57 68.99 L 210.25 71.06 A 0.60 0.56 -71.6 0 1 210.59 71.80 Q 210.20 72.97 208.50 72.50 Q 207.52 72.23 205.98 72.62 Q 205.48 72.74 205.95 72.99 Q 208.11 74.13 210.50 74.75 Q 211.75 75.40 211.07 76.38 A 1.24 0.93 9.1 0 1 210.25 76.81 L 205.80 77.27 Q 204.98 77.36 205.67 77.64 Q 205.97 77.76 206.50 77.75 Q 209.46 77.68 211.60 79.94 A 1.43 1.33 -71.0 0 1 211.98 80.80 Q 212.95 91.85 203.42 97.15 Q 202.96 97.41 202.85 97.15 A 0.57 0.37 -34.3 0 1 203.08 96.60 Q 207.00 93.50 207.75 90.50 Q 208.44 87.76 206.91 89.93 Q 204.64 93.15 200.06 96.56 Q 198.87 97.45 199.21 96.34 Q 199.29 96.09 199.50 95.84 Q 202.13 92.71 203.73 88.95 Q 203.92 88.49 203.68 88.36 A 0.54 0.35 -60.6 0 0 203.12 88.65 Q 199.96 94.26 194.18 97.19 Q 192.45 98.07 193.74 96.63 Q 197.19 92.77 198.68 87.73 Q 198.81 87.31 198.58 87.27 A 0.47 0.28 -70.4 0 0 198.20 87.58 Q 194.97 94.88 188.00 98.00 Q 187.39 98.27 187.51 97.75 Q 187.54 97.59 187.70 97.41 Q 190.91 94.02 192.69 89.69 Q 193.09 89.18 192.97 88.69 Q 192.82 88.11 192.54 88.69 Q 189.41 95.08 183.34 97.99 Q 181.88 98.70 182.93 97.45 Q 186.41 93.32 188.10 88.23 A 0.51 0.37 -79.1 0 0 187.79 87.57 Q 187.44 87.59 187.19 88.19 Q 183.47 96.89 175.44 99.19 Q 173.01 99.88 174.97 98.11 Q 175.23 97.88 175.69 97.55 Q 183.43 91.99 182.01 82.31 A 1.55 1.27 -76.3 0 0 181.59 81.44 Q 180.37 80.28 180.16 82.49 Q 179.85 85.74 180.02 89.00 Q 180.05 89.50 179.76 89.74 Q 179.26 90.17 179.18 89.46 L 178.51 83.29 A 1.49 1.30 80.5 0 0 176.88 81.95 L 171.29 83.32 Q 169.44 83.77 171.04 82.76 Q 177.21 78.86 185.02 77.87 Q 194.24 76.70 194.50 76.75 Q 195.58 76.94 195.48 76.45 A 0.89 0.60 1.8 0 0 194.76 75.93 Q 182.38 74.31 170.67 78.60 Q 170.43 78.69 170.18 78.68 Q 168.73 78.61 170.20 78.03 Q 170.45 77.93 170.67 77.80 Q 177.86 73.48 184.00 73.00 Q 189.01 72.61 193.71 72.03 Q 196.24 71.73 193.72 71.36 Q 181.28 69.52 170.00 73.94 Q 167.98 74.73 169.71 73.42 Q 173.42 70.62 177.92 69.38 Q 186.55 67.01 195.44 68.00 A 0.81 0.65 -0.7 0 1 196.11 68.53 L 197.28 73.95 Q 197.36 74.34 197.49 73.98 Q 198.41 71.40 197.56 68.69 Q 196.47 58.00 194.05 47.54 Q 193.85 46.70 193.56 47.34 Q 193.42 47.64 193.50 48.25 Q 194.74 57.63 196.00 67.01 A 0.27 0.26 -87.2 0 1 195.68 67.31 Q 181.37 64.05 168.01 69.74 Q 167.56 69.94 167.95 69.61 Q 174.28 64.22 180.75 63.75 Q 186.50 63.33 192.25 63.00 Q 192.87 62.80 192.67 62.46 Q 192.57 62.26 192.23 62.19 Q 180.02 59.38 168.70 64.57 Q 168.42 64.70 168.17 64.76 Q 165.95 65.38 168.15 63.87 Q 172.99 60.57 178.57 59.15 Q 180.79 58.58 184.99 58.41 Q 188.29 58.27 191.48 57.96 Q 192.86 57.82 191.51 57.50 Q 178.89 54.51 167.23 60.01 Q 166.23 60.48 167.04 59.72 Q 172.77 54.38 181.00 54.25 Q 186.27 53.85 191.55 53.70 A 0.61 0.28 -2.2 0 0 192.16 53.39 Q 192.16 53.17 191.49 53.06 Q 183.17 51.64 174.75 52.25 Q 173.53 52.34 166.27 55.25 Q 165.80 55.44 166.19 55.11 Q 174.16 48.33 184.50 49.00 Q 187.46 49.19 189.71 48.58 Q 190.22 48.44 189.70 48.31 Q 177.25 45.01 165.80 50.60 A 0.44 0.27 -24.5 0 1 165.26 50.53 Q 165.19 50.33 165.56 50.06 Q 169.16 47.50 173.18 45.66 Q 177.25 43.79 181.76 44.18 Q 185.73 44.52 189.69 44.34 Q 190.20 44.31 189.71 44.16 Q 183.52 42.18 177.16 41.76 A 2.03 2.03 -4.9 0 1 175.32 40.21 Q 174.48 36.72 170.80 36.94 Q 168.70 37.06 170.57 36.12 Q 174.36 34.20 178.06 36.02 A 0.79 0.71 -50.4 0 0 178.86 35.90 Z"/>
<path fill="rgb(255,224,97)" fill-opacity="1.000" d="M 169.25 38.51 L 172.73 39.67 A 1.29 1.03 -82.4 0 1 173.44 40.85 Q 173.43 41.91 171.59 39.76 A 1.29 1.28 -28.2 0 0 170.24 39.36 Q 167.18 40.25 168.40 38.86 A 0.96 0.63 -55.7 0 1 169.25 38.51 Z"/>
<path fill="rgb(255,204,0)" fill-opacity="1.000" d="M 162.79 51.04 Q 165.08 67.75 167.75 84.25 Q 167.86 84.92 167.65 85.32 Q 167.36 85.88 167.20 85.21 Q 163.69 70.06 162.44 54.56 Q 161.97 52.50 162.30 51.02 Q 162.61 49.69 162.79 51.04 Z"/>
<path fill="rgb(255,204,0)" fill-opacity="1.000" d="M 157.97 55.96 L 162.68 88.00 A 0.54 0.38 87.6 0 1 162.28 88.63 Q 161.98 88.59 161.98 88.06 Q 161.98 87.67 161.93 87.44 Q 158.17 71.73 157.70 55.98 Q 157.63 53.65 157.97 55.96 Z"/>
<path fill="rgb(255,204,0)" fill-opacity="1.000" d="M 206.81 57.69 Q 209.32 59.74 205.42 59.36 Q 204.82 59.30 203.57 59.33 Q 200.56 59.41 201.30 56.41 A 0.62 0.59 9.0 0 1 201.94 55.97 Q 205.04 56.24 206.81 57.69 Z"/>
<path fill="rgb(255,204,0)" fill-opacity="1.000" d="M 203.45 60.27 Q 205.73 61.02 207.87 62.22 Q 209.72 63.26 207.64 63.67 Q 205.60 64.08 203.38 63.68 A 1.59 1.57 87.3 0 1 202.12 62.52 Q 201.35 59.57 203.45 60.27 Z"/>
<path fill="rgb(255,204,0)" fill-opacity="1.000" d="M 203.31 64.62 Q 206.06 64.97 208.56 66.20 Q 210.65 67.23 209.14 67.99 Q 208.61 68.26 207.82 68.22 Q 205.91 68.12 204.01 68.03 A 1.41 1.08 -14.7 0 1 203.13 67.66 Q 202.09 66.55 202.62 65.02 A 0.65 0.60 12.7 0 1 203.31 64.62 Z"/>
<path fill="rgb(255,204,0)" fill-opacity="1.000" d="M 195.00 101.31 L 195.71 110.00 Q 195.34 111.22 195.36 112.50 Q 195.39 114.09 194.87 113.58 A 1.32 0.27 80.6 0 1 194.53 112.69 L 194.04 110.50 L 193.20 105.68 A 0.67 0.66 85.2 0 0 192.56 105.13 L 187.04 105.05 A 0.75 0.73 -84.8 0 0 186.32 105.67 L 185.46 110.50 L 183.70 115.29 Q 183.50 115.84 183.36 115.26 Q 183.01 113.77 183.46 112.25 L 183.66 101.18 A 0.53 0.52 -88.9 0 1 184.19 100.66 L 194.43 100.77 A 0.58 0.58 88.4 0 1 195.00 101.31 Z"/>
<path fill="rgb(255,204,0)" fill-opacity="1.000" d="M 177.66 105.63 Q 181.13 107.62 180.46 111.75 Q 178.85 114.40 175.74 114.94 Q 175.18 115.04 175.00 114.54 Q 181.44 111.64 176.79 106.50 Q 174.66 104.71 176.94 105.33 Q 177.33 105.44 177.66 105.63 Z"/>
<path fill="rgb(255,255,255)" fill-opacity="1.000" d="M 187.04 105.05 L 192.56 105.13 A 0.67 0.66 85.2 0 1 193.20 105.68 L 194.04 110.50 Q 193.53 111.57 192.25 111.25 Q 188.82 111.22 185.46 110.50 L 186.32 105.67 A 0.75 0.73 -84.8 0 1 187.04 105.05 Z"/>
<path fill="rgb(255,249,225)" fill-opacity="1.000" d="M 169.71 106.25 Q 169.61 107.04 170.26 107.06 Q 171.01 107.09 171.22 107.15 Q 174.14 108.00 176.79 106.50 Q 181.44 111.64 175.00 114.54 L 173.00 116.04 Q 167.16 112.74 169.71 106.25 Z"/>
<path fill="rgb(255,242,189)" fill-opacity="1.000" d="M 195.71 110.00 L 195.76 112.51 A 1.07 0.70 -80.8 0 0 196.13 113.33 Q 196.59 113.61 197.21 113.50 Q 197.32 117.24 193.50 118.98 A 2.04 1.77 79.9 0 0 192.45 120.74 L 192.38 125.32 A 0.59 0.55 -0.6 0 1 191.81 125.86 Q 190.87 125.88 190.00 125.44 A 0.99 0.77 -83.0 0 1 189.55 124.69 L 188.63 112.81 Q 188.54 111.62 188.45 112.79 L 187.96 119.25 L 179.31 118.96 Q 178.88 118.95 178.38 118.68 Q 176.80 117.82 175.00 118.21 Q 174.59 116.64 173.00 116.04 L 175.00 114.54 Q 175.18 115.04 175.74 114.94 Q 178.85 114.40 180.46 111.75 Q 182.00 111.36 183.46 112.25 Q 183.01 113.77 183.36 115.26 Q 183.50 115.84 183.70 115.29 L 185.46 110.50 Q 188.82 111.22 192.25 111.25 Q 193.53 111.57 194.04 110.50 L 194.53 112.69 A 1.32 0.27 80.6 0 0 194.87 113.58 Q 195.39 114.09 195.36 112.50 Q 195.34 111.22 195.71 110.00 Z"/>
<path fill="rgb(255,231,132)" fill-opacity="1.000" d="M 179.31 118.96 L 187.96 119.25 L 187.96 122.25 Q 184.57 121.73 181.29 122.50 L 180.81 120.44 Q 180.25 118.00 179.06 119.56 Q 176.29 123.22 174.86 127.58 Q 174.61 128.33 173.13 126.32 Q 173.08 126.26 173.06 126.33 Q 171.44 131.21 175.56 134.19 Q 176.18 134.63 175.97 135.30 A 0.44 0.41 25.4 0 1 175.33 135.50 Q 168.47 131.34 172.50 123.75 Q 173.61 120.92 175.00 118.21 Q 176.80 117.82 178.38 118.68 Q 178.88 118.95 179.31 118.96 Z"/>
<path fill="rgb(255,224,97)" fill-opacity="1.000" d="M 187.96 122.25 L 187.85 131.82 A 0.53 0.52 1.1 0 1 187.31 132.33 L 181.82 132.20 A 0.60 0.59 -89.0 0 1 181.25 131.60 L 181.29 122.50 Q 184.57 121.73 187.96 122.25 Z"/>
<path fill="rgb(212,170,0)" fill-opacity="1.000" d="M 273.96 142.00 Q 273.93 142.53 274.44 142.53 Q 300.31 142.43 326.19 142.56 A 1.41 1.32 63.7 0 1 327.07 142.89 L 334.07 148.70 Q 334.52 149.07 334.49 148.46 L 334.24 143.00 A 0.52 0.47 -1.6 0 1 334.76 142.50 L 351.18 142.55 A 0.82 0.82 77.5 0 1 351.90 143.01 L 365.74 171.91 Q 366.25 172.97 366.24 174.00 L 365.98 199.47 A 0.81 0.79 0.4 0 1 365.17 200.25 L 329.20 200.25 Q 328.45 200.25 328.84 200.90 L 337.93 216.13 A 1.68 1.66 30.7 0 1 338.17 217.06 Q 337.62 230.29 336.00 243.44 A 0.57 0.57 3.4 0 1 335.43 243.94 L 240.32 243.75 A 1.92 1.63 82.3 0 1 238.67 242.27 L 237.71 238.25 L 233.60 220.15 A 0.87 0.87 -60.8 0 0 232.94 219.49 Q 229.74 218.74 230.50 222.00 Q 229.29 232.72 229.04 243.50 Q 228.60 244.17 227.79 244.25 Q 227.32 243.75 226.25 243.75 Q 218.25 243.75 210.17 243.75 A 0.71 0.68 86.2 0 1 209.49 243.13 L 206.75 221.21 Q 206.96 218.70 205.36 219.86 Q 204.85 220.23 204.18 220.66 Q 202.52 221.75 202.50 223.79 L 200.76 243.06 A 0.76 0.74 -87.5 0 1 200.02 243.75 L 168.06 243.69 A 0.79 0.78 77.6 0 1 167.35 243.23 L 162.68 233.11 Q 161.94 231.48 161.75 233.24 L 160.74 242.93 A 0.92 0.88 -86.7 0 1 159.86 243.75 Q 151.00 243.75 142.00 243.68 Q 141.25 243.68 140.75 244.21 Q 138.45 243.48 136.00 243.75 Q 112.41 243.78 88.81 243.94 A 0.50 0.49 -89.4 0 1 88.32 243.43 L 88.52 234.13 A 0.55 0.50 -89.4 0 0 88.02 233.57 L 83.68 233.61 A 1.16 0.72 -65.2 0 0 82.92 234.11 L 76.07 243.61 A 1.07 0.98 16.3 0 1 75.26 244.01 L 49.79 244.25 A 0.54 0.54 -89.0 0 1 49.24 243.68 Q 49.40 240.87 49.56 238.25 Q 49.70 236.00 48.28 237.86 A 0.68 0.66 -37.9 0 1 47.13 237.73 L 45.42 233.63 Q 45.10 232.87 44.71 233.57 L 39.01 243.79 A 0.91 0.85 -74.4 0 1 38.25 244.25 L 21.21 244.25 A 0.49 0.49 -88.9 0 1 20.72 243.74 Q 21.37 231.15 22.71 219.02 Q 22.99 216.52 24.26 214.29 Q 29.46 205.20 34.56 196.06 Q 35.90 194.02 35.35 190.56 Q 35.27 190.04 34.96 190.46 L 27.94 200.08 A 1.01 1.00 17.6 0 1 27.12 200.50 L 8.42 200.50 A 0.68 0.68 89.6 0 1 7.74 199.82 L 8.00 174.06 A 3.67 2.73 -33.3 0 1 8.70 172.14 L 12.92 166.35 A 1.65 1.16 70.2 0 0 13.17 165.44 L 12.74 143.15 A 0.67 0.65 -0.9 0 1 13.40 142.49 L 93.04 142.25 Q 99.87 142.88 106.71 142.25 Q 110.61 142.91 114.50 142.21 L 150.16 142.49 A 0.58 0.53 -0.5 0 1 150.73 143.00 L 150.98 151.48 A 0.77 0.71 -85.3 0 0 151.54 152.20 Q 154.11 152.78 154.12 150.50 Q 154.15 146.65 154.51 143.27 A 0.85 0.84 -86.6 0 1 155.36 142.51 L 233.56 142.68 A 0.73 0.73 -9.4 0 1 234.23 143.16 Q 235.67 147.27 236.75 151.50 Q 237.33 153.33 238.36 152.31 A 1.22 0.98 71.4 0 0 238.68 151.44 L 238.48 143.86 A 1.40 1.35 -1.2 0 1 239.86 142.47 L 252.21 142.25 Q 252.54 143.05 253.31 142.56 Q 256.65 142.42 260.00 142.54 L 273.10 142.44 A 1.00 0.31 -40.3 0 0 273.68 142.19 L 273.96 142.00 Z M 27.95 152.55 Q 28.76 152.57 28.28 153.22 L 12.89 174.00 Q 12.52 174.50 13.13 174.50 L 24.81 174.50 A 1.15 1.14 16.9 0 0 25.76 174.00 L 40.26 152.98 A 1.11 1.10 -72.7 0 1 41.17 152.50 L 52.08 152.50 A 1.38 1.38 -79.5 0 0 53.37 151.61 Q 54.26 149.28 52.89 147.91 Q 51.97 147.00 49.85 147.00 Q 34.42 147.00 19.00 147.00 Q 16.27 146.68 18.17 148.83 Q 19.12 149.90 19.49 151.27 Q 19.89 152.73 21.47 152.58 Q 22.49 152.49 22.55 152.49 Q 25.45 152.46 27.95 152.55 Z M 60.97 166.97 L 63.00 163.21 A 1.00 0.71 9.5 0 1 63.82 162.81 L 85.25 162.76 A 1.33 1.32 11.3 0 0 86.45 161.97 L 88.46 157.33 A 0.41 0.41 12.0 0 0 88.08 156.75 L 67.21 156.75 A 0.42 0.40 13.6 0 1 66.83 156.16 L 68.54 152.99 A 0.92 0.83 13.1 0 1 69.32 152.56 L 90.00 152.50 A 0.97 0.90 15.6 0 0 90.79 152.09 Q 92.63 149.28 89.86 147.33 A 1.73 1.52 -24.8 0 0 88.94 147.06 L 56.40 147.00 Q 55.39 147.00 56.01 147.87 L 57.77 150.30 A 0.89 0.73 -49.4 0 1 57.75 151.18 L 44.24 173.77 Q 43.91 174.31 44.55 174.31 L 80.44 174.19 A 0.82 0.75 11.0 0 0 81.17 173.74 L 83.62 168.19 A 0.48 0.46 9.9 0 0 83.15 167.55 Q 72.06 168.11 61.31 167.47 A 0.38 0.33 14.6 0 1 60.97 166.97 Z M 102.47 166.97 L 107.30 153.23 A 1.16 1.09 8.7 0 1 108.38 152.49 L 128.82 152.33 A 0.70 0.69 -81.5 0 0 129.48 151.83 Q 130.67 148.07 126.50 147.00 Q 126.50 147.00 97.40 147.00 Q 97.19 147.00 95.60 146.93 Q 91.73 146.77 95.45 149.51 A 1.94 1.92 -61.1 0 1 96.10 151.79 L 87.43 173.53 A 0.35 0.35 -79.1 0 0 87.75 174.01 L 123.57 174.32 A 0.64 0.62 -83.6 0 0 124.18 173.82 L 125.47 168.17 A 0.51 0.50 4.8 0 0 124.95 167.56 Q 113.87 168.11 102.82 167.47 A 0.39 0.37 11.2 0 1 102.47 166.97 Z M 144.86 156.19 L 146.13 147.57 A 0.50 0.49 -85.9 0 0 145.65 147.00 L 131.49 147.00 Q 130.17 147.00 131.22 147.94 L 133.93 150.36 A 1.02 0.75 -68.1 0 1 134.16 151.25 L 129.67 173.45 A 0.45 0.42 -83.1 0 0 130.06 173.99 L 141.19 174.22 A 0.62 0.60 -84.5 0 0 141.80 173.70 L 143.45 163.72 A 1.13 1.02 -84.4 0 1 144.48 162.78 L 156.57 162.91 A 0.50 0.44 -87.6 0 1 157.00 163.44 L 156.49 173.74 A 0.53 0.48 2.1 0 0 157.01 174.25 L 167.80 174.31 A 0.54 0.52 1.1 0 0 168.34 173.81 L 169.52 147.89 A 0.85 0.85 -88.7 0 0 168.67 147.00 L 159.34 147.00 A 0.90 0.86 -87.5 0 0 158.48 147.82 L 157.75 156.19 A 0.57 0.56 -87.2 0 1 157.19 156.70 L 145.32 156.70 A 0.46 0.45 3.8 0 1 144.86 156.19 Z M 192.56 152.81 L 214.12 152.68 A 1.04 1.04 80.3 0 0 215.10 151.29 Q 214.22 148.81 212.26 147.83 Q 211.09 147.25 208.15 147.27 Q 192.38 147.37 177.03 147.07 Q 175.67 147.05 176.74 147.88 L 180.36 150.70 A 1.13 1.00 -73.9 0 1 180.76 151.54 L 181.05 162.39 A 0.66 0.62 -0.4 0 0 181.71 163.00 Q 192.19 163.00 202.64 163.00 Q 202.75 163.00 203.84 162.92 Q 206.01 162.76 205.82 165.00 Q 205.78 165.45 205.93 165.97 Q 206.15 166.74 205.90 167.47 A 0.76 0.67 9.0 0 1 205.19 167.92 L 182.22 167.77 A 0.80 0.73 0.0 0 0 181.41 168.51 L 181.45 173.94 A 0.61 0.51 -0.5 0 0 182.06 174.44 L 218.89 174.68 A 0.47 0.46 -5.4 0 0 219.36 174.12 L 216.16 157.68 A 0.61 0.61 -5.1 0 0 215.56 157.18 L 193.06 156.94 A 0.63 0.53 -1.9 0 1 192.45 156.46 L 192.06 153.30 A 0.50 0.44 -3.1 0 1 192.56 152.81 Z M 235.81 163.28 L 248.24 163.46 A 0.78 0.66 79.1 0 1 248.90 163.99 L 252.31 173.90 A 0.91 0.87 -9.0 0 0 253.16 174.49 L 264.24 174.50 A 0.35 0.35 -10.3 0 0 264.57 174.03 Q 256.63 153.14 255.44 150.81 Q 253.75 147.54 249.99 147.38 Q 246.88 147.25 243.66 147.25 A 0.41 0.41 80.4 0 0 243.27 147.80 L 246.22 156.41 A 0.44 0.43 80.4 0 1 245.81 156.99 L 233.94 156.84 A 0.71 0.70 -7.1 0 1 233.27 156.33 L 230.95 148.01 A 1.04 0.97 81.8 0 0 230.00 147.25 L 215.49 147.25 Q 214.65 147.25 215.37 147.72 L 220.04 150.75 A 1.36 1.04 -85.3 0 1 220.55 151.55 L 225.62 173.81 A 1.18 1.08 -5.8 0 0 226.75 174.65 L 237.92 174.69 A 0.34 0.34 -7.7 0 0 238.25 174.26 L 235.42 163.81 A 0.42 0.41 81.9 0 1 235.81 163.28 Z M 296.09 150.09 Q 294.13 149.00 292.23 148.12 Q 290.36 147.25 288.10 147.26 Q 272.20 147.36 256.29 147.06 Q 254.93 147.04 256.13 147.72 L 261.52 150.78 A 1.77 1.20 84.7 0 1 262.14 151.53 L 272.03 174.03 A 0.80 0.79 -11.9 0 0 272.76 174.50 L 310.76 174.50 Q 311.47 174.50 311.10 173.89 L 297.33 151.31 Q 296.84 150.51 296.09 150.09 Z M 338.20 167.87 L 345.20 173.85 A 1.40 1.34 65.2 0 0 346.07 174.19 L 360.70 174.42 A 0.68 0.68 77.8 0 0 361.32 173.45 L 348.94 147.62 A 1.10 1.07 76.7 0 0 347.97 147.00 L 339.34 147.00 A 0.35 0.34 78.5 0 0 339.03 147.48 L 346.55 165.21 Q 346.79 165.78 346.32 165.38 L 325.75 147.88 A 3.36 2.69 59.9 0 0 323.75 147.10 L 315.74 147.19 Q 315.19 147.20 315.63 147.59 Q 319.95 151.46 324.27 155.33 Q 325.95 156.82 326.72 158.91 Q 328.05 162.54 329.41 166.47 Q 329.83 167.66 328.90 166.81 L 308.24 147.77 A 2.75 2.24 61.6 0 0 306.52 147.06 L 295.75 147.21 Q 295.19 147.22 295.68 147.51 Q 297.86 148.80 300.19 149.81 Q 312.89 161.60 325.05 173.56 A 2.44 2.44 67.1 0 0 326.75 174.25 L 339.75 174.25 A 0.36 0.34 -9.7 0 0 340.09 173.79 L 337.99 168.03 Q 337.81 167.54 338.20 167.87 Z M 174.63 175.67 Q 174.26 178.60 174.25 181.89 A 0.56 0.55 -87.8 0 0 174.76 182.45 Q 176.62 182.63 176.45 181.58 Q 176.27 180.46 176.27 180.38 Q 176.35 177.77 176.11 175.18 A 1.78 1.60 -69.5 0 0 175.76 174.29 Q 174.30 172.48 174.61 174.71 Q 174.68 175.22 174.63 175.67 Z M 280.26 210.20 L 270.25 210.25 A 1.08 1.04 79.6 0 1 269.26 209.54 L 261.53 188.07 A 1.29 1.26 -9.5 0 0 260.34 187.24 L 248.56 187.18 Q 247.90 187.18 248.42 187.59 L 252.86 191.18 A 1.78 1.63 -81.7 0 1 253.40 191.98 L 261.90 217.21 A 0.71 0.67 -8.4 0 0 262.57 217.68 L 294.02 217.75 A 0.44 0.44 77.8 0 0 294.42 217.13 L 281.42 188.23 A 1.67 1.66 -12.0 0 0 279.90 187.25 L 272.57 187.25 A 0.52 0.52 78.9 0 0 272.09 187.97 L 280.70 209.54 A 0.48 0.48 78.0 0 1 280.26 210.20 Z M 114.11 192.23 L 107.42 217.25 A 0.40 0.40 7.2 0 0 107.81 217.75 L 139.44 217.69 A 0.58 0.57 4.0 0 0 140.01 217.20 L 144.12 188.06 A 0.50 0.44 -84.9 0 0 143.70 187.49 L 136.00 187.33 A 1.24 1.13 -84.0 0 0 134.86 188.35 L 131.01 209.46 A 0.93 0.90 -84.3 0 1 130.11 210.23 L 119.94 210.09 A 0.42 0.41 -83.8 0 1 119.54 209.58 L 124.21 187.94 A 0.42 0.40 -84.1 0 0 123.82 187.44 L 111.55 187.44 Q 110.88 187.44 111.33 188.00 L 114.03 191.31 A 1.16 0.66 -65.3 0 1 114.11 192.23 Z M 176.95 206.30 Q 178.26 205.79 179.70 205.89 A 0.45 0.44 1.2 0 0 180.18 205.44 L 179.75 188.16 A 0.65 0.65 89.1 0 0 179.10 187.53 L 148.26 187.30 Q 146.38 187.29 147.81 188.53 Q 150.91 191.24 150.42 194.47 Q 148.75 205.44 147.68 217.22 A 0.49 0.48 -87.8 0 0 148.16 217.75 L 157.44 217.70 A 0.55 0.53 1.7 0 0 157.99 217.20 L 158.74 207.09 A 1.18 1.12 -87.8 0 1 159.86 206.00 L 165.26 206.00 A 1.77 1.77 -12.7 0 1 166.86 207.01 L 171.73 217.28 A 0.82 0.82 -12.5 0 0 172.47 217.75 L 181.29 217.75 A 0.67 0.66 -13.7 0 0 181.89 216.78 L 176.74 206.95 A 0.48 0.44 65.4 0 1 176.95 206.30 Z M 183.28 187.41 Q 181.83 187.41 182.91 188.44 L 185.95 191.35 A 1.38 0.75 -80.8 0 1 186.26 192.24 L 187.24 216.81 A 1.10 1.02 -1.4 0 0 188.35 217.79 L 197.39 217.76 A 0.66 0.62 -2.4 0 0 198.05 217.09 L 195.62 188.15 A 0.94 0.89 -2.3 0 0 194.69 187.34 L 183.28 187.41 Z M 222.07 193.30 L 230.82 193.30 A 0.47 0.40 -5.3 0 0 231.30 192.81 L 230.26 187.90 A 0.77 0.60 -3.5 0 0 229.56 187.42 Q 214.03 186.94 198.49 187.48 Q 197.89 187.50 198.33 187.88 L 203.88 192.59 Q 204.79 193.36 206.94 193.33 L 210.79 193.26 A 0.92 0.88 85.2 0 1 211.68 194.04 L 215.14 216.88 A 0.85 0.79 -3.2 0 0 215.95 217.55 L 224.84 217.77 A 0.83 0.78 -3.9 0 0 225.69 216.85 L 221.65 193.81 A 0.43 0.43 84.9 0 1 222.07 193.30 Z M 233.34 188.13 Q 235.06 189.37 236.36 190.63 Q 237.64 191.88 238.15 193.96 Q 240.97 205.55 244.06 217.08 A 0.69 0.64 82.9 0 0 244.68 217.60 L 254.17 217.72 A 0.66 0.64 81.9 0 0 254.78 216.88 L 246.14 187.92 A 0.94 0.93 -8.3 0 0 245.24 187.26 L 233.60 187.30 Q 232.19 187.30 233.34 188.13 Z M 318.20 210.44 L 298.57 210.43 A 0.37 0.37 -12.2 0 0 298.23 210.95 L 301.08 217.12 A 1.50 1.49 -12.3 0 0 302.44 217.99 L 332.76 217.76 Q 333.27 217.76 333.00 217.31 L 322.17 198.95 A 0.93 0.89 -14.7 0 0 321.38 198.51 Q 313.49 198.40 305.94 198.27 Q 305.88 198.27 304.07 198.38 Q 301.51 198.54 300.69 196.20 Q 300.45 195.50 300.05 194.95 Q 298.83 193.29 300.97 193.41 Q 302.49 193.50 302.54 193.50 Q 309.95 193.50 318.32 193.50 Q 319.11 193.50 318.69 192.81 L 315.92 188.28 A 1.67 1.51 73.0 0 0 314.60 187.49 L 283.82 187.32 Q 283.19 187.32 283.66 187.68 L 287.80 190.85 Q 288.88 191.69 289.18 192.30 L 295.14 204.73 A 0.92 0.92 -12.8 0 0 295.97 205.25 L 315.24 205.25 A 1.28 1.03 -11.3 0 1 316.30 205.80 L 318.52 209.96 A 0.35 0.32 -13.3 0 1 318.20 210.44 Z M 94.49 207.80 L 94.41 217.03 A 0.96 0.89 -89.7 0 0 95.30 218.00 L 102.04 218.00 A 1.23 1.22 8.7 0 0 103.21 217.15 Q 104.69 212.57 105.50 209.00 Q 105.69 208.17 105.08 188.19 A 0.54 0.54 89.4 0 0 104.55 187.67 L 84.35 187.51 Q 82.99 187.50 83.87 188.56 Q 84.85 189.73 85.37 191.51 A 1.07 1.02 -36.1 0 1 85.21 192.41 L 67.49 217.37 Q 67.04 218.00 67.81 218.00 L 73.92 218.00 A 2.29 2.21 -72.4 0 0 75.78 216.99 L 82.02 207.73 A 0.98 0.94 -72.3 0 1 82.81 207.30 L 93.94 207.30 A 0.55 0.50 0.0 0 1 94.49 207.80 Z M 46.89 201.77 L 50.52 209.31 A 0.45 0.44 -30.2 0 0 51.17 209.47 L 62.27 201.96 Q 63.73 200.97 62.99 202.59 L 56.01 217.73 A 0.34 0.33 -77.5 0 0 56.31 218.21 L 61.31 218.23 A 2.02 1.92 -71.6 0 0 62.91 217.38 Q 66.35 212.49 69.80 207.80 Q 71.20 205.89 72.56 202.56 Q 75.40 195.60 78.48 188.79 A 0.62 0.62 -73.0 0 0 78.02 187.92 Q 74.26 187.30 72.05 188.80 Q 64.38 194.01 56.52 199.30 A 0.87 0.85 59.8 0 1 55.27 198.96 L 49.95 188.21 A 0.82 0.81 -13.7 0 0 49.20 187.76 L 41.06 187.80 A 0.37 0.36 80.3 0 0 40.72 188.29 L 41.83 191.53 A 1.14 1.07 51.8 0 1 41.75 192.43 L 27.55 217.76 A 0.31 0.30 -75.9 0 0 27.81 218.21 L 37.06 218.10 A 0.94 0.77 -73.6 0 0 37.78 217.61 L 46.43 201.75 Q 46.67 201.31 46.89 201.77 Z"/>
<path fill="rgb(255,251,193)" fill-opacity="1.000" d="M 19.00 147.00 Q 34.42 147.00 49.85 147.00 Q 51.97 147.00 52.89 147.91 Q 54.26 149.28 53.37 151.61 A 1.38 1.38 -79.5 0 1 52.08 152.50 L 41.17 152.50 A 1.11 1.10 -72.7 0 0 40.26 152.98 L 25.76 174.00 A 1.15 1.14 16.9 0 1 24.81 174.50 L 13.13 174.50 Q 12.52 174.50 12.89 174.00 L 28.28 153.22 Q 28.76 152.57 27.95 152.55 Q 25.45 152.46 22.55 152.49 Q 22.49 152.49 21.47 152.58 Q 19.89 152.73 19.49 151.27 Q 19.12 149.90 18.17 148.83 Q 16.27 146.68 19.00 147.00 Z M 25.00 160.51 L 15.86 172.74 Q 15.48 173.25 16.13 173.25 L 23.85 173.25 A 1.38 1.37 17.4 0 0 24.98 172.66 L 32.98 161.13 Q 33.72 160.06 32.45 160.05 L 26.05 160.01 A 1.36 1.25 17.2 0 0 25.00 160.51 Z"/>
<path fill="rgb(255,251,193)" fill-opacity="1.000" d="M 56.40 147.00 L 88.94 147.06 A 1.73 1.52 -24.8 0 1 89.86 147.33 Q 92.63 149.28 90.79 152.09 A 0.97 0.90 15.6 0 1 90.00 152.50 L 69.32 152.56 A 0.92 0.83 13.1 0 0 68.54 152.99 L 66.83 156.16 A 0.42 0.40 13.6 0 0 67.21 156.75 L 88.08 156.75 A 0.41 0.41 12.0 0 1 88.46 157.33 L 86.45 161.97 A 1.33 1.32 11.3 0 1 85.25 162.76 L 63.82 162.81 A 1.00 0.71 9.5 0 0 63.00 163.21 L 60.97 166.97 A 0.38 0.33 14.6 0 0 61.31 167.47 Q 72.06 168.11 83.15 167.55 A 0.48 0.46 9.9 0 1 83.62 168.19 L 81.17 173.74 A 0.82 0.75 11.0 0 1 80.44 174.19 L 44.55 174.31 Q 43.91 174.31 44.24 173.77 L 57.75 151.18 A 0.89 0.73 -49.4 0 0 57.77 150.30 L 56.01 147.87 Q 55.39 147.00 56.40 147.00 Z M 58.53 168.49 L 62.06 161.98 A 1.49 1.40 13.5 0 1 63.34 161.25 Q 74.50 161.25 84.50 161.20 Q 85.16 161.20 85.24 160.80 A 0.65 0.48 11.7 0 0 84.70 160.20 Q 83.12 159.89 81.54 160.02 Q 78.61 160.26 78.44 160.26 Q 67.28 160.30 55.69 159.79 A 2.53 2.47 -72.7 0 0 53.44 161.01 L 46.45 172.67 Q 46.25 173.00 46.63 173.00 L 79.44 172.94 A 0.92 0.60 6.6 0 0 80.24 172.54 L 81.39 169.70 A 0.59 0.51 9.4 0 0 80.81 169.00 L 58.81 168.94 A 0.31 0.31 13.7 0 1 58.53 168.49 Z"/>
<path fill="rgb(255,251,193)" fill-opacity="1.000" d="M 97.40 147.00 Q 126.50 147.00 126.50 147.00 Q 130.67 148.07 129.48 151.83 A 0.70 0.69 -81.5 0 1 128.82 152.33 L 108.38 152.49 A 1.16 1.09 8.7 0 0 107.30 153.23 L 102.47 166.97 A 0.39 0.37 11.2 0 0 102.82 167.47 Q 113.87 168.11 124.95 167.56 A 0.51 0.50 4.8 0 1 125.47 168.17 L 124.18 173.82 A 0.64 0.62 -83.6 0 1 123.57 174.32 L 87.75 174.01 A 0.35 0.35 -79.1 0 1 87.43 173.53 L 96.10 151.79 A 1.94 1.92 -61.1 0 0 95.45 149.51 Q 91.73 146.77 95.60 146.93 Q 97.19 147.00 97.40 147.00 Z M 100.48 168.47 L 102.93 161.17 A 0.78 0.74 -80.2 0 0 102.25 160.15 L 94.81 160.01 A 0.83 0.72 -76.3 0 0 94.10 160.52 L 89.23 172.47 A 0.35 0.34 10.7 0 0 89.56 172.94 L 122.70 172.94 A 0.60 0.59 5.2 0 0 123.29 172.46 L 123.86 169.30 A 0.42 0.40 4.4 0 0 123.43 168.83 L 100.81 168.95 A 0.37 0.35 -80.5 0 1 100.48 168.47 Z"/>
<path fill="rgb(255,251,193)" fill-opacity="1.000" d="M 131.49 147.00 L 145.65 147.00 A 0.50 0.49 -85.9 0 1 146.13 147.57 L 144.86 156.19 A 0.46 0.45 3.8 0 0 145.32 156.70 L 157.19 156.70 A 0.57 0.56 -87.2 0 0 157.75 156.19 L 158.48 147.82 A 0.90 0.86 -87.5 0 1 159.34 147.00 L 168.67 147.00 A 0.85 0.85 -88.7 0 1 169.52 147.89 L 168.34 173.81 A 0.54 0.52 1.1 0 1 167.80 174.31 L 157.01 174.25 A 0.53 0.48 2.1 0 1 156.49 173.74 L 157.00 163.44 A 0.50 0.44 -87.6 0 0 156.57 162.91 L 144.48 162.78 A 1.13 1.02 -84.4 0 0 143.45 163.72 L 141.80 173.70 A 0.62 0.60 -84.5 0 1 141.19 174.22 L 130.06 173.99 A 0.45 0.42 -83.1 0 1 129.67 173.45 L 134.16 151.25 A 1.02 0.75 -68.1 0 0 133.93 150.36 L 131.22 147.94 Q 130.17 147.00 131.49 147.00 Z M 143.31 161.31 L 157.75 161.48 A 0.55 0.55 88.3 0 1 158.29 161.99 Q 158.65 166.43 157.64 171.29 A 1.40 1.35 -83.9 0 0 158.95 172.97 L 166.69 172.95 A 0.53 0.52 -89.4 0 0 167.21 172.43 L 167.51 160.90 A 0.92 0.89 0.6 0 0 166.59 159.99 L 134.73 159.82 A 0.94 0.93 -83.1 0 0 133.81 160.55 L 131.21 172.24 A 0.62 0.62 -83.6 0 0 131.81 173.00 L 139.96 173.00 A 1.05 1.04 -88.2 0 0 141.00 172.01 Q 141.29 166.80 142.68 161.79 A 0.65 0.64 -81.9 0 1 143.31 161.31 Z"/>
<path fill="rgb(255,251,193)" fill-opacity="1.000" d="M 177.03 147.07 Q 192.38 147.37 208.15 147.27 Q 211.09 147.25 212.26 147.83 Q 214.22 148.81 215.10 151.29 A 1.04 1.04 80.3 0 1 214.12 152.68 L 192.56 152.81 A 0.50 0.44 -3.1 0 0 192.06 153.30 L 192.45 156.46 A 0.63 0.53 -1.9 0 0 193.06 156.94 L 215.56 157.18 A 0.61 0.61 -5.1 0 1 216.16 157.68 L 219.36 174.12 A 0.47 0.46 -5.4 0 1 218.89 174.68 L 182.06 174.44 A 0.61 0.51 -0.5 0 1 181.45 173.94 L 181.41 168.51 A 0.80 0.73 0.0 0 1 182.22 167.77 L 205.19 167.92 A 0.76 0.67 9.0 0 0 205.90 167.47 Q 206.15 166.74 205.93 165.97 Q 205.78 165.45 205.82 165.00 Q 206.01 162.76 203.84 162.92 Q 202.75 163.00 202.64 163.00 Q 192.19 163.00 181.71 163.00 A 0.66 0.62 -0.4 0 1 181.05 162.39 L 180.76 151.54 A 1.13 1.00 -73.9 0 0 180.36 150.70 L 176.74 147.88 Q 175.67 147.05 177.03 147.07 Z M 187.03 159.96 Q 184.75 159.81 182.94 160.19 Q 181.30 160.53 182.37 161.27 Q 182.70 161.50 183.19 161.50 Q 193.75 161.52 205.51 161.50 A 1.23 1.16 -3.5 0 1 206.72 162.51 L 207.47 168.36 A 0.83 0.79 -3.6 0 1 206.64 169.25 Q 195.90 169.25 185.72 169.25 Q 183.39 169.25 183.30 169.29 Q 182.18 169.77 182.76 172.44 A 1.03 1.03 -6.3 0 0 183.77 173.25 L 216.51 173.24 A 0.96 0.96 -5.3 0 0 217.45 172.11 L 215.39 161.06 A 1.66 1.65 -6.9 0 0 213.67 159.72 Q 202.11 160.30 191.10 160.21 Q 190.74 160.21 187.03 159.96 Z"/>
<path fill="rgb(255,251,193)" fill-opacity="1.000" d="M 230.00 147.25 A 1.04 0.97 81.8 0 1 230.95 148.01 L 233.27 156.33 A 0.71 0.70 -7.1 0 0 233.94 156.84 L 245.81 156.99 A 0.44 0.43 80.4 0 0 246.22 156.41 L 243.27 147.80 A 0.41 0.41 80.4 0 1 243.66 147.25 Q 246.88 147.25 249.99 147.38 Q 253.75 147.54 255.44 150.81 Q 256.63 153.14 264.57 174.03 A 0.35 0.35 -10.3 0 1 264.24 174.50 L 253.16 174.49 A 0.91 0.87 -9.0 0 1 252.31 173.90 L 248.90 163.99 A 0.78 0.66 79.1 0 0 248.24 163.46 L 235.81 163.28 A 0.42 0.41 81.9 0 0 235.42 163.81 L 238.25 174.26 A 0.34 0.34 -7.7 0 1 237.92 174.69 L 226.75 174.65 A 1.18 1.08 -5.8 0 1 225.62 173.81 L 220.55 151.55 A 1.36 1.04 -85.3 0 0 220.04 150.75 L 215.37 147.72 Q 214.65 147.25 215.49 147.25 L 230.00 147.25 Z M 233.90 161.55 L 249.06 161.67 A 0.73 0.70 80.1 0 1 249.73 162.16 L 253.52 172.60 A 0.77 0.71 79.8 0 0 254.19 173.11 L 261.67 173.21 A 0.85 0.81 78.7 0 0 262.41 172.04 L 257.73 160.74 A 1.19 1.17 78.8 0 0 256.64 160.00 L 224.61 160.00 A 0.46 0.45 83.4 0 0 224.17 160.56 L 226.79 172.44 A 1.03 1.01 83.6 0 0 227.78 173.25 L 235.68 173.25 A 0.51 0.51 82.2 0 0 236.17 172.60 L 233.36 162.27 A 0.57 0.56 82.5 0 1 233.90 161.55 Z"/>
<path fill="rgb(255,251,193)" fill-opacity="1.000" d="M 256.29 147.06 Q 272.20 147.36 288.10 147.26 Q 290.36 147.25 292.23 148.12 Q 294.13 149.00 296.09 150.09 Q 296.84 150.51 297.33 151.31 L 311.10 173.89 Q 311.47 174.50 310.76 174.50 L 272.76 174.50 A 0.80 0.79 -11.9 0 1 272.03 174.03 L 262.14 151.53 A 1.77 1.20 84.7 0 0 261.52 150.78 L 256.13 147.72 Q 254.93 147.04 256.29 147.06 Z M 274.33 153.60 L 281.04 167.53 A 0.84 0.82 76.6 0 0 281.78 168.00 L 294.86 168.00 A 0.30 0.30 -15.0 0 0 295.12 167.55 L 287.07 153.10 A 0.70 0.67 74.6 0 0 286.48 152.75 L 274.86 152.75 A 0.59 0.59 77.1 0 0 274.33 153.60 Z M 280.10 168.49 L 276.41 161.00 A 1.56 1.35 74.4 0 0 275.10 160.13 L 268.05 160.23 A 0.40 0.36 76.8 0 0 267.75 160.78 L 272.65 172.51 A 1.22 1.21 -11.3 0 0 273.77 173.25 L 307.45 173.25 Q 309.15 173.25 308.25 171.83 L 301.09 160.59 A 1.01 0.92 72.5 0 0 300.31 160.14 L 294.01 160.03 A 0.90 0.83 75.4 0 0 293.31 161.34 L 297.11 168.61 A 0.35 0.34 -15.1 0 1 296.81 169.10 Q 288.81 169.59 280.81 168.98 A 0.88 0.86 79.0 0 1 280.10 168.49 Z"/>
<path fill="rgb(255,251,193)" fill-opacity="1.000" d="M 306.52 147.06 A 2.75 2.24 61.6 0 1 308.24 147.77 L 328.90 166.81 Q 329.83 167.66 329.41 166.47 Q 328.05 162.54 326.72 158.91 Q 325.95 156.82 324.27 155.33 Q 319.95 151.46 315.63 147.59 Q 315.19 147.20 315.74 147.19 L 323.75 147.10 A 3.36 2.69 59.9 0 1 325.75 147.88 L 346.32 165.38 Q 346.79 165.78 346.55 165.21 L 339.03 147.48 A 0.35 0.34 78.5 0 1 339.34 147.00 L 347.97 147.00 A 1.10 1.07 76.7 0 1 348.94 147.62 L 361.32 173.45 A 0.68 0.68 77.8 0 1 360.70 174.42 L 346.07 174.19 A 1.40 1.34 65.2 0 1 345.20 173.85 L 338.20 167.87 Q 337.81 167.54 337.99 168.03 L 340.09 173.79 A 0.36 0.34 -9.7 0 1 339.75 174.25 L 326.75 174.25 A 2.44 2.44 67.1 0 1 325.05 173.56 Q 312.89 161.60 300.19 149.81 Q 297.86 148.80 295.68 147.51 Q 295.19 147.22 295.75 147.21 L 306.52 147.06 Z M 334.68 162.64 L 345.93 172.37 A 1.46 1.20 -19.5 0 0 346.81 172.69 L 358.06 172.92 A 0.84 0.82 -12.1 0 0 358.84 171.74 L 353.36 160.53 A 0.94 0.90 76.2 0 0 352.52 160.00 L 346.52 160.06 A 0.38 0.36 76.9 0 0 346.21 160.59 L 350.47 170.17 Q 350.90 171.15 350.07 170.45 L 338.38 160.57 A 1.58 1.10 58.3 0 0 337.50 160.19 L 329.98 160.05 A 0.90 0.87 80.6 0 0 329.16 161.24 L 331.42 167.77 A 0.93 0.92 82.0 0 1 330.51 169.00 Q 328.89 168.92 327.75 167.75 Q 324.75 165.01 321.86 162.14 Q 318.70 158.99 314.23 160.12 Q 313.72 160.25 314.10 160.62 L 326.12 172.41 A 1.39 1.25 -20.6 0 0 327.01 172.76 L 337.36 172.81 A 0.65 0.61 79.2 0 0 337.92 171.93 L 334.46 162.80 Q 334.26 162.28 334.68 162.64 Z"/>
<path fill="rgb(212,170,0)" fill-opacity="1.000" d="M 274.86 152.75 L 286.48 152.75 A 0.70 0.67 74.6 0 1 287.07 153.10 L 295.12 167.55 A 0.30 0.30 -15.0 0 1 294.86 168.00 L 281.78 168.00 A 0.84 0.82 76.6 0 1 281.04 167.53 L 274.33 153.60 A 0.59 0.59 77.1 0 1 274.86 152.75 Z"/>
<path fill="rgb(255,221,85)" fill-opacity="1.000" d="M 55.69 159.79 Q 67.28 160.30 78.44 160.26 Q 78.61 160.26 81.54 160.02 Q 83.12 159.89 84.70 160.20 A 0.65 0.48 11.7 0 1 85.24 160.80 Q 85.16 161.20 84.50 161.20 Q 74.50 161.25 63.34 161.25 A 1.49 1.40 13.5 0 0 62.06 161.98 L 58.53 168.49 A 0.31 0.31 13.7 0 0 58.81 168.94 L 80.81 169.00 A 0.59 0.51 9.4 0 1 81.39 169.70 L 80.24 172.54 A 0.92 0.60 6.6 0 1 79.44 172.94 L 46.63 173.00 Q 46.25 173.00 46.45 172.67 L 53.44 161.01 A 2.53 2.47 -72.7 0 1 55.69 159.79 Z"/>
<path fill="rgb(255,221,85)" fill-opacity="1.000" d="M 102.25 160.15 A 0.78 0.74 -80.2 0 1 102.93 161.17 L 100.48 168.47 A 0.37 0.35 -80.5 0 0 100.81 168.95 L 123.43 168.83 A 0.42 0.40 4.4 0 1 123.86 169.30 L 123.29 172.46 A 0.60 0.59 5.2 0 1 122.70 172.94 L 89.56 172.94 A 0.35 0.34 10.7 0 1 89.23 172.47 L 94.10 160.52 A 0.83 0.72 -76.3 0 1 94.81 160.01 L 102.25 160.15 Z"/>
<path fill="rgb(255,221,85)" fill-opacity="1.000" d="M 134.73 159.82 L 166.59 159.99 A 0.92 0.89 0.6 0 1 167.51 160.90 L 167.21 172.43 A 0.53 0.52 -89.4 0 1 166.69 172.95 L 158.95 172.97 A 1.40 1.35 -83.9 0 1 157.64 171.29 Q 158.65 166.43 158.29 161.99 A 0.55 0.55 88.3 0 0 157.75 161.48 L 143.31 161.31 A 0.65 0.64 -81.9 0 0 142.68 161.79 Q 141.29 166.80 141.00 172.01 A 1.05 1.04 -88.2 0 1 139.96 173.00 L 131.81 173.00 A 0.62 0.62 -83.6 0 1 131.21 172.24 L 133.81 160.55 A 0.94 0.93 -83.1 0 1 134.73 159.82 Z"/>
<path fill="rgb(255,221,85)" fill-opacity="1.000" d="M 213.67 159.72 A 1.66 1.65 -6.9 0 1 215.39 161.06 L 217.45 172.11 A 0.96 0.96 -5.3 0 1 216.51 173.24 L 183.77 173.25 A 1.03 1.03 -6.3 0 1 182.76 172.44 Q 182.18 169.77 183.30 169.29 Q 183.39 169.25 185.72 169.25 Q 195.90 169.25 206.64 169.25 A 0.83 0.79 -3.6 0 0 207.47 168.36 L 206.72 162.51 A 1.23 1.16 -3.5 0 0 205.51 161.50 Q 193.75 161.52 183.19 161.50 Q 182.70 161.50 182.37 161.27 Q 181.30 160.53 182.94 160.19 Q 184.75 159.81 187.03 159.96 Q 190.74 160.21 191.10 160.21 Q 202.11 160.30 213.67 159.72 Z"/>
<path fill="rgb(255,221,85)" fill-opacity="1.000" d="M 256.64 160.00 A 1.19 1.17 78.8 0 1 257.73 160.74 L 262.41 172.04 A 0.85 0.81 78.7 0 1 261.67 173.21 L 254.19 173.11 A 0.77 0.71 79.8 0 1 253.52 172.60 L 249.73 162.16 A 0.73 0.70 80.1 0 0 249.06 161.67 L 233.90 161.55 A 0.57 0.56 82.5 0 0 233.36 162.27 L 236.17 172.60 A 0.51 0.51 82.2 0 1 235.68 173.25 L 227.78 173.25 A 1.03 1.01 83.6 0 1 226.79 172.44 L 224.17 160.56 A 0.46 0.45 83.4 0 1 224.61 160.00 L 256.64 160.00 Z"/>
<path fill="rgb(255,221,85)" fill-opacity="1.000" d="M 26.05 160.01 L 32.45 160.05 Q 33.72 160.06 32.98 161.13 L 24.98 172.66 A 1.38 1.37 17.4 0 1 23.85 173.25 L 16.13 173.25 Q 15.48 173.25 15.86 172.74 L 25.00 160.51 A 1.36 1.25 17.2 0 1 26.05 160.01 Z"/>
<path fill="rgb(255,221,85)" fill-opacity="1.000" d="M 275.10 160.13 A 1.56 1.35 74.4 0 1 276.41 161.00 L 280.10 168.49 A 0.88 0.86 79.0 0 0 280.81 168.98 Q 288.81 169.59 296.81 169.10 A 0.35 0.34 -15.1 0 0 297.11 168.61 L 293.31 161.34 A 0.90 0.83 75.4 0 1 294.01 160.03 L 300.31 160.14 A 1.01 0.92 72.5 0 1 301.09 160.59 L 308.25 171.83 Q 309.15 173.25 307.45 173.25 L 273.77 173.25 A 1.22 1.21 -11.3 0 1 272.65 172.51 L 267.75 160.78 A 0.40 0.36 76.8 0 1 268.05 160.23 L 275.10 160.13 Z"/>
<path fill="rgb(255,221,85)" fill-opacity="1.000" d="M 321.86 162.14 Q 324.75 165.01 327.75 167.75 Q 328.89 168.92 330.51 169.00 A 0.93 0.92 82.0 0 0 331.42 167.77 L 329.16 161.24 A 0.90 0.87 80.6 0 1 329.98 160.05 L 337.50 160.19 A 1.58 1.10 58.3 0 1 338.38 160.57 L 350.07 170.45 Q 350.90 171.15 350.47 170.17 L 346.21 160.59 A 0.38 0.36 76.9 0 1 346.52 160.06 L 352.52 160.00 A 0.94 0.90 76.2 0 1 353.36 160.53 L 358.84 171.74 A 0.84 0.82 -12.1 0 1 358.06 172.92 L 346.81 172.69 A 1.46 1.20 -19.5 0 1 345.93 172.37 L 334.68 162.64 Q 334.26 162.28 334.46 162.80 L 337.92 171.93 A 0.65 0.61 79.2 0 1 337.36 172.81 L 327.01 172.76 A 1.39 1.25 -20.6 0 1 326.12 172.41 L 314.10 160.62 Q 313.72 160.25 314.23 160.12 Q 318.70 158.99 321.86 162.14 Z"/>
<path fill="rgb(255,204,0)" fill-opacity="1.000" d="M 176.11 175.18 Q 176.35 177.77 176.27 180.38 Q 176.27 180.46 176.45 181.58 Q 176.62 182.63 174.76 182.45 A 0.56 0.55 -87.8 0 1 174.25 181.89 Q 174.26 178.60 174.63 175.67 Q 174.68 175.22 174.61 174.71 Q 174.30 172.48 175.76 174.29 A 1.78 1.60 -69.5 0 1 176.11 175.18 Z"/>
<path fill="rgb(255,251,193)" fill-opacity="1.000" d="M 248.56 187.18 L 260.34 187.24 A 1.29 1.26 -9.5 0 1 261.53 188.07 L 269.26 209.54 A 1.08 1.04 79.6 0 0 270.25 210.25 L 280.26 210.20 A 0.48 0.48 78.1 0 0 280.70 209.54 L 272.09 187.97 A 0.52 0.52 78.9 0 1 272.57 187.25 L 279.90 187.25 A 1.67 1.66 -12.0 0 1 281.42 188.23 L 294.42 217.13 A 0.44 0.44 77.8 0 1 294.02 217.75 L 262.57 217.68 A 0.71 0.67 -8.4 0 1 261.90 217.21 L 253.40 191.98 A 1.78 1.63 -81.7 0 0 252.86 191.18 L 248.42 187.59 Q 247.90 187.18 248.56 187.18 Z M 282.39 211.70 L 269.25 211.75 A 1.12 1.11 79.6 0 1 268.19 211.01 L 260.78 190.35 A 2.07 2.03 84.1 0 0 259.16 189.01 Q 255.57 188.45 253.47 189.08 Q 253.00 189.23 253.38 189.56 Q 254.87 190.82 255.37 192.70 Q 255.89 194.63 255.89 194.64 Q 259.46 204.96 262.56 215.44 A 1.11 1.07 81.0 0 0 263.61 216.23 L 291.39 216.00 A 0.51 0.50 78.0 0 0 291.84 215.29 L 280.33 189.41 A 1.10 1.09 77.9 0 0 279.33 188.75 L 274.95 188.75 A 0.75 0.74 78.4 0 0 274.27 189.79 L 283.01 210.76 A 0.68 0.68 78.5 0 1 282.39 211.70 Z"/>
<path fill="rgb(254,252,203)" fill-opacity="1.000" d="M 111.55 187.44 L 123.82 187.44 A 0.42 0.40 -84.1 0 1 124.21 187.94 L 119.54 209.58 A 0.42 0.41 -83.8 0 0 119.94 210.09 L 130.11 210.23 A 0.93 0.90 -84.3 0 0 131.01 209.46 L 134.86 188.35 A 1.24 1.13 -84.0 0 1 136.00 187.33 L 143.70 187.49 A 0.50 0.44 -84.9 0 1 144.12 188.06 L 140.01 217.20 A 0.58 0.57 4.0 0 1 139.44 217.69 L 107.81 217.75 A 0.40 0.40 7.2 0 1 107.42 217.25 L 114.11 192.23 A 1.16 0.66 -65.3 0 0 114.03 191.31 L 111.33 188.00 Q 110.88 187.44 111.55 187.44 Z M 117.58 210.90 L 122.53 189.36 A 0.46 0.43 -81.9 0 0 122.13 188.80 L 115.29 188.51 Q 113.26 188.43 114.78 189.91 Q 115.95 191.05 115.50 192.62 Q 112.31 203.86 109.32 215.64 A 0.49 0.49 6.9 0 0 109.80 216.25 L 138.02 216.25 A 0.80 0.79 3.7 0 0 138.81 215.56 L 142.38 189.73 A 0.83 0.81 -86.1 0 0 141.57 188.78 L 136.87 188.80 A 0.84 0.79 -84.2 0 0 136.09 189.48 L 132.21 210.89 A 1.05 1.05 -84.7 0 1 131.18 211.75 L 118.25 211.75 A 0.70 0.69 -83.6 0 1 117.58 210.90 Z"/>
<path fill="rgb(255,251,193)" fill-opacity="1.000" d="M 148.26 187.30 L 179.10 187.53 A 0.65 0.65 89.1 0 1 179.75 188.16 L 180.18 205.44 A 0.45 0.44 1.2 0 1 179.70 205.89 Q 178.26 205.79 176.95 206.30 A 0.48 0.44 65.4 0 0 176.74 206.95 L 181.89 216.78 A 0.67 0.66 -13.7 0 1 181.29 217.75 L 172.47 217.75 A 0.82 0.82 -12.5 0 1 171.73 217.28 L 166.86 207.01 A 1.77 1.77 -12.7 0 0 165.26 206.00 L 159.86 206.00 A 1.18 1.12 -87.8 0 0 158.74 207.09 L 157.99 217.20 A 0.55 0.53 1.7 0 1 157.44 217.70 L 148.16 217.75 A 0.49 0.48 -87.8 0 1 147.68 217.22 Q 148.75 205.44 150.42 194.47 Q 150.91 191.24 147.81 188.53 Q 146.38 187.29 148.26 187.30 Z M 158.06 204.74 Q 162.38 204.16 166.70 204.74 A 1.00 0.88 -7.2 0 1 167.44 205.24 L 172.38 215.37 A 1.57 1.38 75.3 0 0 173.68 216.25 L 179.01 216.25 A 0.72 0.70 75.7 0 0 179.62 215.19 L 174.55 205.58 Q 174.02 204.58 175.30 204.63 L 178.20 204.75 A 0.54 0.48 89.9 0 0 178.70 204.19 L 178.42 189.51 A 1.08 1.05 -1.1 0 0 177.32 188.48 Q 164.84 188.69 153.37 188.98 Q 153.23 188.99 152.13 188.96 Q 149.94 188.90 151.57 190.48 A 1.10 0.95 27.2 0 1 151.90 191.30 L 149.38 215.43 A 0.55 0.45 -85.5 0 0 149.80 216.04 L 155.58 216.10 A 1.38 1.15 -87.2 0 0 156.76 214.82 L 157.49 205.31 A 0.66 0.62 -1.9 0 1 158.06 204.74 Z"/>
<path fill="rgb(255,249,225)" fill-opacity="1.000" d="M 183.28 187.41 L 194.69 187.34 A 0.94 0.89 -2.3 0 1 195.62 188.15 L 198.05 217.09 A 0.66 0.62 -2.4 0 1 197.39 217.76 L 188.35 217.79 A 1.10 1.02 -1.4 0 1 187.24 216.81 L 186.26 192.24 A 1.38 0.75 -80.8 0 0 185.95 191.35 L 182.91 188.44 Q 181.83 187.41 183.28 187.41 Z M 193.65 188.73 Q 190.79 188.36 188.26 188.27 Q 184.73 188.15 186.74 190.12 A 2.36 2.13 23.1 0 1 187.43 191.61 L 188.52 215.19 A 1.33 1.27 -1.8 0 0 189.88 216.41 L 196.04 216.26 A 0.51 0.49 -2.7 0 0 196.54 215.73 L 194.45 189.58 A 0.93 0.93 -88.5 0 0 193.65 188.73 Z"/>
<path fill="rgb(254,252,203)" fill-opacity="1.000" d="M 230.26 187.90 L 231.30 192.81 A 0.47 0.40 -5.3 0 1 230.82 193.30 L 222.07 193.30 A 0.43 0.43 84.9 0 0 221.65 193.81 L 225.69 216.85 A 0.83 0.78 -3.9 0 1 224.84 217.77 L 215.95 217.55 A 0.85 0.79 -3.2 0 1 215.14 216.88 L 211.68 194.04 A 0.92 0.88 85.2 0 0 210.79 193.26 L 206.94 193.33 Q 204.79 193.36 203.88 192.59 L 198.33 187.88 Q 197.89 187.50 198.49 187.48 Q 214.03 186.94 229.56 187.42 A 0.77 0.60 -3.5 0 1 230.26 187.90 Z M 203.76 190.94 Q 204.76 192.00 206.00 192.00 Q 209.00 192.00 212.02 192.00 A 1.01 1.00 -3.9 0 1 213.02 192.86 L 216.19 215.29 A 1.51 1.41 -5.1 0 0 217.74 216.50 L 223.81 216.26 A 0.50 0.48 -6.0 0 0 224.29 215.69 L 219.90 192.95 A 0.92 0.91 -1.3 0 1 220.93 191.88 Q 225.34 192.52 229.01 192.07 A 0.66 0.64 -1.3 0 0 229.58 191.50 Q 229.69 190.25 229.04 189.17 A 0.97 0.88 -14.3 0 0 228.24 188.75 L 203.25 188.75 A 1.14 0.80 12.5 0 0 202.41 189.10 Q 201.85 189.83 202.97 190.37 Q 203.43 190.59 203.76 190.94 Z"/>
<path fill="rgb(255,251,193)" fill-opacity="1.000" d="M 233.60 187.30 L 245.24 187.26 A 0.94 0.93 -8.3 0 1 246.14 187.92 L 254.78 216.88 A 0.66 0.64 81.9 0 1 254.17 217.72 L 244.68 217.60 A 0.69 0.64 82.9 0 1 244.06 217.08 Q 240.97 205.55 238.15 193.96 Q 237.64 191.88 236.36 190.63 Q 235.06 189.37 233.34 188.13 Q 232.19 187.30 233.60 187.30 Z M 237.48 189.65 Q 238.92 190.76 239.29 192.29 Q 242.01 203.45 245.14 215.33 A 1.23 1.23 82.7 0 0 246.33 216.25 L 252.64 216.25 A 0.38 0.38 81.9 0 0 253.00 215.76 L 245.07 189.29 A 0.70 0.66 81.1 0 0 244.43 188.79 L 237.75 188.81 Q 236.38 188.81 237.48 189.65 Z"/>
<path fill="rgb(254,252,203)" fill-opacity="1.000" d="M 283.82 187.32 L 314.60 187.49 A 1.67 1.51 73.0 0 1 315.92 188.28 L 318.69 192.81 Q 319.11 193.50 318.32 193.50 Q 309.95 193.50 302.54 193.50 Q 302.49 193.50 300.97 193.41 Q 298.83 193.29 300.05 194.95 Q 300.45 195.50 300.69 196.20 Q 301.51 198.54 304.07 198.38 Q 305.88 198.27 305.94 198.27 Q 313.49 198.40 321.38 198.51 A 0.93 0.89 -14.7 0 1 322.17 198.95 L 333.00 217.31 Q 333.27 217.76 332.76 217.76 L 302.44 217.99 A 1.50 1.49 -12.3 0 1 301.08 217.12 L 298.23 210.95 A 0.37 0.37 -12.2 0 1 298.57 210.43 L 318.20 210.44 A 0.35 0.32 -13.3 0 0 318.52 209.96 L 316.30 205.80 A 1.28 1.03 -11.3 0 0 315.24 205.25 L 295.97 205.25 A 0.92 0.92 -12.8 0 1 295.14 204.73 L 289.18 192.30 Q 288.88 191.69 287.80 190.85 L 283.66 187.68 Q 283.19 187.32 283.82 187.32 Z M 320.43 211.69 L 301.17 211.96 A 0.60 0.58 -13.1 0 0 300.62 212.80 L 302.27 216.04 A 0.95 0.69 -9.4 0 0 303.06 216.44 L 330.27 216.50 Q 331.10 216.50 330.67 215.78 L 321.57 200.53 A 1.57 1.48 73.6 0 0 320.25 199.76 L 301.75 199.83 A 1.58 1.56 -13.0 0 1 300.32 198.95 L 297.55 193.28 Q 296.83 191.82 298.46 191.94 Q 307.33 192.62 315.45 191.98 A 0.44 0.44 -8.5 0 0 315.85 191.45 Q 315.52 190.01 314.40 189.05 A 1.49 1.23 -20.9 0 0 313.51 188.75 Q 301.75 188.71 290.00 189.00 Q 289.04 188.75 288.72 189.21 A 0.54 0.40 28.7 0 0 289.02 189.87 Q 290.07 190.37 290.50 191.50 Q 293.36 197.22 296.10 202.99 A 0.81 0.79 -11.8 0 0 296.81 203.44 L 316.00 203.74 A 0.99 0.79 -11.0 0 1 316.80 204.16 L 320.75 211.22 A 0.35 0.32 -13.5 0 1 320.43 211.69 Z"/>
<path fill="rgb(255,254,237)" fill-opacity="1.000" d="M 84.35 187.51 L 104.55 187.67 A 0.54 0.54 89.4 0 1 105.08 188.19 Q 105.69 208.17 105.50 209.00 Q 104.69 212.57 103.21 217.15 A 1.23 1.22 8.7 0 1 102.04 218.00 L 95.30 218.00 A 0.96 0.89 -89.7 0 1 94.41 217.03 L 94.49 207.80 A 0.55 0.50 0.0 0 0 93.94 207.30 L 82.81 207.30 A 0.98 0.94 -72.3 0 0 82.02 207.73 L 75.78 216.99 A 2.29 2.21 -72.4 0 1 73.92 218.00 L 67.81 218.00 Q 67.04 218.00 67.49 217.37 L 85.21 192.41 A 1.07 1.02 -36.1 0 0 85.37 191.51 Q 84.85 189.73 83.87 188.56 Q 82.99 187.50 84.35 187.51 Z M 81.81 206.27 L 95.08 206.06 A 1.01 0.94 89.7 0 1 96.04 207.08 L 95.99 215.76 A 0.58 0.52 -89.0 0 0 96.50 216.35 L 101.21 216.39 A 1.13 0.96 -76.9 0 0 102.15 215.69 Q 104.76 209.47 104.06 203.19 Q 104.02 196.25 103.71 189.32 A 0.53 0.52 88.9 0 0 103.19 188.81 L 86.74 188.75 Q 84.96 188.74 86.24 189.98 Q 86.90 190.63 86.95 191.70 A 1.60 1.11 -36.5 0 1 86.65 192.59 L 70.27 215.73 Q 69.51 216.81 70.77 216.69 L 74.07 216.40 A 1.12 1.01 -73.3 0 0 74.86 215.92 L 81.06 206.74 A 1.07 0.81 -69.1 0 1 81.81 206.27 Z"/>
<path fill="rgb(255,254,237)" fill-opacity="1.000" d="M 41.06 187.80 L 49.20 187.76 A 0.82 0.81 -13.7 0 1 49.95 188.21 L 55.27 198.96 A 0.87 0.85 59.8 0 0 56.52 199.30 Q 64.38 194.01 72.05 188.80 Q 74.26 187.30 78.02 187.92 A 0.62 0.62 -73.0 0 1 78.48 188.79 Q 75.40 195.60 72.56 202.56 Q 71.20 205.89 69.80 207.80 Q 66.35 212.49 62.91 217.38 A 2.02 1.92 -71.6 0 1 61.31 218.23 L 56.31 218.21 A 0.34 0.33 -77.5 0 1 56.01 217.73 L 62.99 202.59 Q 63.73 200.97 62.27 201.96 L 51.17 209.47 A 0.45 0.44 -30.2 0 1 50.52 209.31 L 46.89 201.77 Q 46.67 201.31 46.43 201.75 L 37.78 217.61 A 0.94 0.77 -73.6 0 1 37.06 218.10 L 27.81 218.21 A 0.31 0.30 -75.9 0 1 27.55 217.76 L 41.75 192.43 A 1.14 1.07 51.8 0 0 41.83 191.53 L 40.72 188.29 A 0.37 0.36 80.3 0 1 41.06 187.80 Z M 66.23 198.03 L 58.09 216.09 A 0.66 0.57 -77.2 0 0 58.58 217.02 L 61.26 216.87 A 1.27 0.80 -65.4 0 0 62.04 216.36 Q 69.73 206.04 70.06 205.31 Q 73.57 197.52 75.48 192.29 Q 77.51 186.72 72.51 189.99 L 55.68 200.99 A 0.48 0.47 59.9 0 1 55.01 200.81 L 49.14 189.75 A 1.42 1.40 75.8 0 0 47.90 189.00 L 43.40 189.00 Q 41.67 189.00 42.80 190.31 Q 43.72 191.38 43.04 192.61 Q 36.55 204.32 29.99 216.02 A 0.66 0.65 -75.4 0 0 30.56 217.00 L 36.18 216.95 A 0.85 0.83 -75.7 0 0 36.92 216.50 L 46.26 198.79 Q 46.52 198.31 46.74 198.80 L 50.59 207.22 A 0.89 0.85 60.7 0 0 51.87 207.61 L 66.02 197.85 Q 66.44 197.56 66.23 198.03 Z"/>
<path fill="rgb(255,221,85)" fill-opacity="1.000" d="M 115.29 188.51 L 122.13 188.80 A 0.46 0.43 -81.9 0 1 122.53 189.36 L 117.58 210.90 A 0.70 0.69 -83.6 0 0 118.25 211.75 L 131.18 211.75 A 1.05 1.05 -84.7 0 0 132.21 210.89 L 136.09 189.48 A 0.84 0.79 -84.2 0 1 136.87 188.80 L 141.57 188.78 A 0.83 0.81 -86.1 0 1 142.38 189.73 L 138.81 215.56 A 0.80 0.79 3.7 0 1 138.02 216.25 L 109.80 216.25 A 0.49 0.49 6.9 0 1 109.32 215.64 Q 112.31 203.86 115.50 192.62 Q 115.95 191.05 114.78 189.91 Q 113.26 188.43 115.29 188.51 Z"/>
<path fill="rgb(255,221,85)" fill-opacity="1.000" d="M 177.32 188.48 A 1.08 1.05 -1.1 0 1 178.42 189.51 L 178.70 204.19 A 0.54 0.48 89.9 0 1 178.20 204.75 L 175.30 204.63 Q 174.02 204.58 174.55 205.58 L 179.62 215.19 A 0.72 0.70 75.7 0 1 179.01 216.25 L 173.68 216.25 A 1.57 1.38 75.3 0 1 172.38 215.37 L 167.44 205.24 A 1.00 0.88 -7.2 0 0 166.70 204.74 Q 162.38 204.16 158.06 204.74 A 0.66 0.62 -1.9 0 0 157.49 205.31 L 156.76 214.82 A 1.38 1.15 -87.2 0 1 155.58 216.10 L 149.80 216.04 A 0.55 0.45 -85.5 0 1 149.38 215.43 L 151.90 191.30 A 1.10 0.95 27.2 0 0 151.57 190.48 Q 149.94 188.90 152.13 188.96 Q 153.23 188.99 153.37 188.98 Q 164.84 188.69 177.32 188.48 Z M 163.66 200.67 Q 167.20 200.99 171.31 200.38 A 0.52 0.52 -4.6 0 0 171.75 199.87 L 171.75 192.85 A 0.54 0.53 -88.9 0 0 171.24 192.31 L 159.36 192.00 A 0.97 0.96 2.4 0 0 158.36 192.91 L 157.99 200.00 A 0.64 0.62 7.9 0 0 158.49 200.63 Q 159.67 200.89 160.86 200.77 Q 162.74 200.59 163.66 200.67 Z"/>
<path fill="rgb(255,221,85)" fill-opacity="1.000" d="M 188.26 188.27 Q 190.79 188.36 193.65 188.73 A 0.93 0.93 -88.5 0 1 194.45 189.58 L 196.54 215.73 A 0.51 0.49 -2.7 0 1 196.04 216.26 L 189.88 216.41 A 1.33 1.27 -1.8 0 1 188.52 215.19 L 187.43 191.61 A 2.36 2.13 23.1 0 0 186.74 190.12 Q 184.73 188.15 188.26 188.27 Z"/>
<path fill="rgb(255,221,85)" fill-opacity="1.000" d="M 86.74 188.75 L 103.19 188.81 A 0.53 0.52 88.9 0 1 103.71 189.32 Q 104.02 196.25 104.06 203.19 Q 104.76 209.47 102.15 215.69 A 1.13 0.96 -76.9 0 1 101.21 216.39 L 96.50 216.35 A 0.58 0.52 -89.0 0 1 95.99 215.76 L 96.04 207.08 A 1.01 0.94 89.7 0 0 95.08 206.06 L 81.81 206.27 A 1.07 0.81 -69.1 0 0 81.06 206.74 L 74.86 215.92 A 1.12 1.01 -73.3 0 1 74.07 216.40 L 70.77 216.69 Q 69.51 216.81 70.27 215.73 L 86.65 192.59 A 1.60 1.11 -36.5 0 0 86.95 191.70 Q 86.90 190.63 86.24 189.98 Q 84.96 188.74 86.74 188.75 Z M 85.07 201.28 Q 84.76 201.75 85.33 201.75 L 95.52 201.75 A 0.76 0.74 -89.6 0 0 96.26 201.00 L 96.33 193.13 A 0.56 0.49 89.5 0 0 95.83 192.57 L 91.24 192.66 A 1.13 0.84 -68.7 0 0 90.45 193.16 L 85.07 201.28 Z"/>
<path fill="rgb(255,221,85)" fill-opacity="1.000" d="M 203.25 188.75 L 228.24 188.75 A 0.97 0.88 -14.3 0 1 229.04 189.17 Q 229.69 190.25 229.58 191.50 A 0.66 0.64 -1.3 0 1 229.01 192.07 Q 225.34 192.52 220.93 191.88 A 0.92 0.91 -1.3 0 0 219.90 192.95 L 224.29 215.69 A 0.50 0.48 -6.0 0 1 223.81 216.26 L 217.74 216.50 A 1.51 1.41 -5.1 0 1 216.19 215.29 L 213.02 192.86 A 1.01 1.00 -3.9 0 0 212.02 192.00 Q 209.00 192.00 206.00 192.00 Q 204.76 192.00 203.76 190.94 Q 203.43 190.59 202.97 190.37 Q 201.85 189.83 202.41 189.10 A 1.14 0.80 12.5 0 1 203.25 188.75 Z"/>
<path fill="rgb(255,221,85)" fill-opacity="1.000" d="M 237.75 188.81 L 244.43 188.79 A 0.70 0.66 81.1 0 1 245.07 189.29 L 253.00 215.76 A 0.38 0.38 81.9 0 1 252.64 216.25 L 246.33 216.25 A 1.23 1.23 82.7 0 1 245.14 215.33 Q 242.01 203.45 239.29 192.29 Q 238.92 190.76 237.48 189.65 Q 236.38 188.81 237.75 188.81 Z"/>
<path fill="rgb(255,221,85)" fill-opacity="1.000" d="M 259.16 189.01 A 2.07 2.03 84.1 0 1 260.78 190.35 L 268.19 211.01 A 1.12 1.11 79.6 0 0 269.25 211.75 L 282.39 211.70 A 0.68 0.68 78.5 0 0 283.01 210.76 L 274.27 189.79 A 0.75 0.74 78.4 0 1 274.95 188.75 L 279.33 188.75 A 1.10 1.09 77.9 0 1 280.33 189.41 L 291.84 215.29 A 0.51 0.50 78.0 0 1 291.39 216.00 L 263.61 216.23 A 1.11 1.07 81.0 0 1 262.56 215.44 Q 259.46 204.96 255.89 194.64 Q 255.89 194.63 255.37 192.70 Q 254.87 190.82 253.38 189.56 Q 253.00 189.23 253.47 189.08 Q 255.57 188.45 259.16 189.01 Z"/>
<path fill="rgb(255,221,85)" fill-opacity="1.000" d="M 314.40 189.05 Q 315.52 190.01 315.85 191.45 A 0.44 0.44 -8.5 0 1 315.45 191.98 Q 307.33 192.62 298.46 191.94 Q 296.83 191.82 297.55 193.28 L 300.32 198.95 A 1.58 1.56 -13.0 0 0 301.75 199.83 L 320.25 199.76 A 1.57 1.48 73.6 0 1 321.57 200.53 L 330.67 215.78 Q 331.10 216.50 330.27 216.50 L 303.06 216.44 A 0.95 0.69 -9.4 0 1 302.27 216.04 L 300.62 212.80 A 0.60 0.58 -13.1 0 1 301.17 211.96 L 320.43 211.69 A 0.35 0.32 -13.5 0 0 320.75 211.22 L 316.80 204.16 A 0.99 0.79 -11.0 0 0 316.00 203.74 L 296.81 203.44 A 0.81 0.79 -11.8 0 1 296.10 202.99 Q 293.36 197.22 290.50 191.50 Q 290.07 190.37 289.02 189.87 A 0.54 0.40 28.7 0 1 288.72 189.21 Q 289.04 188.75 290.00 189.00 Q 301.75 188.71 313.51 188.75 A 1.49 1.23 -20.9 0 1 314.40 189.05 Z"/>
<path fill="rgb(255,221,85)" fill-opacity="1.000" d="M 43.40 189.00 L 47.90 189.00 A 1.42 1.40 75.8 0 1 49.14 189.75 L 55.01 200.81 A 0.48 0.47 59.9 0 0 55.68 200.99 L 72.51 189.99 Q 77.51 186.72 75.48 192.29 Q 73.57 197.52 70.06 205.31 Q 69.73 206.04 62.04 216.36 A 1.27 0.80 -65.4 0 1 61.26 216.87 L 58.58 217.02 A 0.66 0.57 -77.2 0 1 58.09 216.09 L 66.23 198.03 Q 66.44 197.56 66.02 197.85 L 51.87 207.61 A 0.89 0.85 60.7 0 1 50.59 207.22 L 46.74 198.80 Q 46.52 198.31 46.26 198.79 L 36.92 216.50 A 0.85 0.83 -75.7 0 1 36.18 216.95 L 30.56 217.00 A 0.66 0.65 -75.4 0 1 29.99 216.02 Q 36.55 204.32 43.04 192.61 Q 43.72 191.38 42.80 190.31 Q 41.67 189.00 43.40 189.00 Z"/>
<path fill="rgb(254,252,203)" fill-opacity="1.000" d="M 159.36 192.00 L 171.24 192.31 A 0.54 0.53 -88.9 0 1 171.75 192.85 L 171.75 199.87 A 0.52 0.52 -4.6 0 1 171.31 200.38 Q 167.20 200.99 163.66 200.67 Q 162.74 200.59 160.86 200.77 Q 159.67 200.89 158.49 200.63 A 0.64 0.62 7.9 0 1 157.99 200.00 L 158.36 192.91 A 0.97 0.96 2.4 0 1 159.36 192.00 Z M 170.4694 193.7735 A 0.47 0.47 0 0 0 169.9937 193.3092 L 160.0145 193.4312 A 0.47 0.47 0 0 0 159.5502 193.9069 L 159.6106 198.8465 A 0.47 0.47 0 0 0 160.0863 199.3107 L 170.0656 199.1888 A 0.47 0.47 0 0 0 170.5298 198.7131 L 170.4694 193.7735 Z"/>
<path fill="rgb(255,254,237)" fill-opacity="1.000" d="M 96.33 193.13 L 96.26 201.00 A 0.76 0.74 -89.6 0 1 95.52 201.75 L 85.33 201.75 Q 84.76 201.75 85.07 201.28 L 90.45 193.16 A 1.13 0.84 -68.7 0 1 91.24 192.66 L 95.83 192.57 A 0.56 0.49 89.5 0 1 96.33 193.13 Z M 90.76 194.98 Q 89.16 197.37 87.42 199.71 Q 86.83 200.50 87.82 200.50 L 94.33 200.50 A 0.60 0.55 -0.5 0 0 94.93 199.94 L 94.83 194.25 A 0.69 0.62 5.1 0 0 94.26 193.64 Q 91.95 193.21 90.76 194.98 Z"/>
<rect fill="rgb(212,170,0)" fill-opacity="1.000" x="-5.46" y="-2.94" width="10.92" height="5.88" rx="0.47" transform="translate(165.04,196.31) rotate(-0.7)"/>
<path fill="rgb(212,170,0)" fill-opacity="1.000" d="M 94.83 194.25 L 94.93 199.94 A 0.60 0.55 -0.5 0 1 94.33 200.50 L 87.82 200.50 Q 86.83 200.50 87.42 199.71 Q 89.16 197.37 90.76 194.98 Q 91.95 193.21 94.26 193.64 A 0.69 0.62 5.1 0 1 94.83 194.25 Z"/>
<path fill="rgb(254,252,203)" fill-opacity="1.000" d="M 206.75 221.21 L 202.50 223.79 Q 202.52 221.75 204.18 220.66 Q 204.85 220.23 205.36 219.86 Q 206.96 218.70 206.75 221.21 Z"/>
<path fill="rgb(255,204,0)" fill-opacity="1.000" d="M 232.94 219.49 A 0.87 0.87 -45.0 0 1 233.60 220.15 L 237.71 238.25 L 229.04 243.50 Q 229.29 232.72 230.50 222.00 Q 229.74 218.74 232.94 219.49 Z"/>
<path fill="rgb(255,204,0)" fill-opacity="1.000" d="M 206.75 221.21 L 209.49 243.13 A 0.71 0.68 86.2 0 0 210.17 243.75 Q 218.25 243.75 226.25 243.75 Q 227.32 243.75 227.79 244.25 L 183.71 271.78 A 0.57 0.54 44.7 0 1 183.12 271.77 L 140.75 244.21 Q 141.25 243.68 142.00 243.68 Q 151.00 243.75 159.86 243.75 A 0.92 0.88 -86.7 0 0 160.74 242.93 L 161.75 233.24 Q 161.94 231.48 162.68 233.11 L 167.35 243.23 A 0.79 0.78 77.6 0 0 168.06 243.69 L 200.02 243.75 A 0.76 0.74 -87.5 0 0 200.76 243.06 L 202.50 223.79 L 206.75 221.21 Z"/>
</svg>